<svg xmlns="http://www.w3.org/2000/svg" width="90" height="58" viewBox="0 0 90 58"><g><g><g/><g><g><g><g><g><path fill="#222" d="M81.703 0H8.035c-.306 0-.613 0-.92.002-.258.002-.516.004-.775.012-.564.015-1.131.048-1.688.15a5.427 5.427 0 0 0-2.971 1.534c-.4.405-.736.87-.991 1.38a5.726 5.726 0 0 0-.529 1.619A11.45 11.45 0 0 0 .012 6.4c-.007.26-.01.521-.012.781V50.8c.002.26.005.521.012.782.015.568.049 1.14.15 1.702.1.57.266 1.102.528 1.62a5.406 5.406 0 0 0 2.357 2.38 5.68 5.68 0 0 0 1.605.534c.557.1 1.124.134 1.688.15.259.006.517.009.775.01.307.003.614.003.92.003h73.668c.306 0 .614 0 .92-.002.258-.002.516-.005.776-.011.562-.016 1.13-.05 1.687-.15a5.663 5.663 0 0 0 1.604-.534 5.394 5.394 0 0 0 2.359-2.381 5.687 5.687 0 0 0 .527-1.62 11.4 11.4 0 0 0 .15-1.7c.007-.262.01-.523.011-.783.002-.31.002-.62.002-.93V8.112c0-.31 0-.62-.002-.93-.002-.26-.004-.52-.011-.781a11.45 11.45 0 0 0-.15-1.703 5.505 5.505 0 0 0-1.519-2.999A5.414 5.414 0 0 0 86.69.698a5.673 5.673 0 0 0-1.604-.534c-.557-.1-1.125-.134-1.687-.15-.26-.007-.518-.01-.776-.011C82.317 0 82.009 0 81.703 0z"/></g><g><path fill="#fefefe" d="M81.699 1.93l.907.001c.244.002.49.005.736.012.43.011.933.035 1.4.12.407.073.749.186 1.077.354a3.51 3.51 0 0 1 1.52 1.536c.166.328.276.67.35 1.085.083.467.106.976.118 1.412.007.245.01.492.011.744.002.305.002.609.002.914v41.76c0 .304 0 .609-.002.92a36.32 36.32 0 0 1-.01.738c-.013.436-.036.944-.12 1.416a3.79 3.79 0 0 1-.35 1.081 3.481 3.481 0 0 1-1.522 1.536 3.72 3.72 0 0 1-1.07.353c-.478.086-1 .11-1.394.12-.248.006-.495.01-.748.01-.302.003-.603.003-.905.003H8.02c-.298 0-.597 0-.9-.002a35.157 35.157 0 0 1-.733-.01 9.722 9.722 0 0 1-1.4-.12 3.728 3.728 0 0 1-1.077-.356 3.476 3.476 0 0 1-1.518-1.534 3.783 3.783 0 0 1-.35-1.086 9.622 9.622 0 0 1-.12-1.41c-.006-.248-.01-.495-.011-.742l-.001-.726V7.191c.002-.247.006-.494.012-.742.012-.433.035-.94.12-1.415.072-.41.184-.753.35-1.084a3.492 3.492 0 0 1 1.52-1.533c.326-.168.668-.28 1.075-.354.468-.085.97-.109 1.402-.12.244-.007.49-.01.733-.012l.91-.001h73.667"/></g><g><path fill="#222" d="M23.592 19.567c-.788.934-2.037 1.674-3.287 1.564-.163-1.262.462-2.606 1.168-3.429.787-.961 2.146-1.647 3.26-1.702.136 1.317-.38 2.607-1.14 3.567zm5.163 4.025c-.108.084-2.411 1.424-2.383 4.242.027 3.364 2.925 4.487 2.952 4.514-.026.083-.46 1.587-1.516 3.147-.921 1.368-1.87 2.709-3.388 2.736-1.462.027-1.95-.876-3.63-.876s-2.221.849-3.604.904c-1.463.053-2.573-1.452-3.494-2.82-1.897-2.763-3.332-7.796-1.382-11.19.948-1.696 2.682-2.762 4.552-2.79 1.436-.026 2.763.959 3.63.959s2.411-1.15 4.226-1.04c.705.054 2.737.274 4.037 2.214zm13.218 4.811c2.749 0 4.313-1.494 4.313-4.082 0-2.589-1.564-4.068-4.298-4.068h-3.636v8.15zm.847-10.838c3.946 0 6.694 2.745 6.694 6.741 0 4.011-2.805 6.77-6.793 6.77h-4.368v7.012h-3.157V17.565zm17.06 13.796l-3.51.227c-1.972.128-3.001.868-3.001 2.162 0 1.252 1.071 2.063 2.748 2.063 2.143 0 3.763-1.38 3.763-3.3zm-9.583 2.475c0-2.632 1.987-4.14 5.65-4.367l3.933-.242V28.09c0-1.664-1.085-2.575-3.016-2.575-1.593 0-2.748.825-2.987 2.091H51.03c.084-2.66 2.564-4.593 5.92-4.593 3.606 0 5.96 1.905 5.96 4.863v10.212h-2.918v-2.46h-.07c-.832 1.607-2.664 2.617-4.65 2.617-2.931 0-4.975-1.764-4.975-4.409zm15.295 7.282c.197.028.676.057.93.057 1.395 0 2.184-.597 2.663-2.134l.282-.91-5.34-14.934h3.297l3.72 12.117h.07l3.72-12.117h3.214L72.61 38.885c-1.269 3.598-2.72 4.779-5.792 4.779-.24 0-1.015-.029-1.226-.086z"/></g></g></g></g></g></g></g></svg>