<svg xmlns="http://www.w3.org/2000/svg" width="234" height="23" viewBox="0 0 234 23"><g><g><g/><g><g><g><g><g><path fill="#aaa" d="M38.45 14.155a1.059 1.059 0 0 0-.701-.204h-4.078l4.93-5.306a1.22 1.22 0 0 0 .354-.833.876.876 0 0 0-.239-.613.841.841 0 0 0-.647-.257h-5.728c-.698 0-1.046.296-1.046.887a.716.716 0 0 0 .24.576c.201.15.45.222.7.205h3.83l-4.948 5.324a1.116 1.116 0 0 0-.352.901.836.836 0 0 0 .885.784h5.994c.696 0 1.046-.301 1.046-.904a.702.702 0 0 0-.24-.56zm3.165-3.665v.001zm0 0c.237-1.466.981-2.199 2.234-2.199a1.675 1.675 0 0 1 1.348.559c.35.47.514 1.055.461 1.64zm5.719.985a.782.782 0 0 0 .204-.576 4.438 4.438 0 0 0-.984-3.088 3.584 3.584 0 0 0-2.793-1.083 4.239 4.239 0 0 0-2.27.613 4.134 4.134 0 0 0-1.543 1.704 5.435 5.435 0 0 0-.549 2.474c-.019.78.168 1.552.54 2.237a3.7 3.7 0 0 0 1.534 1.482 4.917 4.917 0 0 0 2.323.523 5.837 5.837 0 0 0 1.64-.23 3.992 3.992 0 0 0 1.268-.586c.279-.193.445-.512.443-.852a.863.863 0 0 0-.168-.541.558.558 0 0 0-.47-.222.931.931 0 0 0-.443.124 4.33 4.33 0 0 1-1.002.454 3.935 3.935 0 0 1-1.126.15 2.367 2.367 0 0 1-1.73-.604 2.547 2.547 0 0 1-.663-1.775h5.266a.71.71 0 0 0 .524-.204zm9.126-3.956a2.901 2.901 0 0 0-2.207-.79 3.83 3.83 0 0 0-1.667.354 2.981 2.981 0 0 0-1.189.994l.019-.337a.815.815 0 0 0-.213-.71 1.011 1.011 0 0 0-.745-.266 1.285 1.285 0 0 0-.834.275.955.955 0 0 0-.354.736l-.568 6.886a1.03 1.03 0 0 0 .257.781c.212.2.5.303.79.284.297.011.59-.09.815-.285.219-.201.347-.482.355-.78l.337-3.957a2.63 2.63 0 0 1 .638-1.633 1.992 1.992 0 0 1 1.526-.585c1.134 0 1.654.656 1.56 1.97l-.355 4.205a.954.954 0 0 0 .247.781c.218.199.506.302.799.284.297.011.59-.09.815-.285.219-.201.347-.482.355-.78l.354-4.294c.013-.119.02-.291.02-.515a3.273 3.273 0 0 0-.755-2.334zM21.568 6.484a3.282 3.282 0 0 0-4.199-1.16 3.239 3.239 0 0 0 .904 6.074 6.956 6.956 0 0 1-7.171 6.734 6.956 6.956 0 0 1-6.733-6.892 6.858 6.858 0 0 1 4.476-6.448c.518-.187.818-.73.698-1.269l-.008-.033a1.094 1.094 0 0 1 .972-1.329 8.862 8.862 0 0 1 1.828.018 1.106 1.106 0 0 0 1.227-1.042A1.138 1.138 0 0 0 12.52-.027a11.148 11.148 0 0 0-1.197-.063C5.07-.09 0 4.984 0 11.242c0 6.259 5.07 11.331 11.323 11.331 6.254 0 11.323-5.072 11.323-11.331z"/></g><g><path fill="#aaa" d="M15.593.77a1.174 1.174 0 0 1 0 2.348 1.174 1.174 0 0 1 0-2.348zm50.494 9.399a1.174 1.174 0 1 1-.001 2.347 1.174 1.174 0 0 1 .001-2.347zM80.901 7.41a.676.676 0 0 1 .175.473c0 .245-.09.46-.267.649l-5.017 5.503h4.287c.222 0 .393.056.515.167a.58.58 0 0 1 .183.449c0 .221-.067.39-.2.507-.132.116-.327.174-.581.174h-5.781c-.213 0-.376-.06-.491-.183a.644.644 0 0 1-.174-.465c0-.221.088-.426.265-.615l5.035-5.553h-4.005c-.222 0-.393-.056-.515-.167a.582.582 0 0 1-.182-.449c0-.455.255-.681.764-.681h5.5c.21 0 .373.063.49.19zm3.467 1.438c-.4.4-.655.98-.765 1.746h4.286c.023-.765-.136-1.347-.473-1.746-.338-.4-.817-.598-1.437-.598-.676 0-1.213.199-1.611.598zm4.81 2.535a.641.641 0 0 1-.475.175h-5.167c.012.82.222 1.455.632 1.905.41.448 1.002.673 1.777.673.775 0 1.495-.222 2.16-.666a.673.673 0 0 1 .366-.116c.155 0 .282.061.381.183.1.122.15.265.15.432 0 .256-.11.471-.331.649-.3.243-.712.443-1.238.598a5.56 5.56 0 0 1-1.587.233c-.798 0-1.496-.161-2.093-.482a3.368 3.368 0 0 1-1.388-1.38c-.327-.6-.49-1.291-.49-2.078 0-.877.168-1.655.507-2.337.337-.682.81-1.21 1.42-1.587.609-.377 1.313-.567 2.11-.567 1.108 0 1.958.33 2.55.99.592.66.89 1.616.89 2.868 0 .222-.059.391-.175.507zm7.301-3.716c0 .51-.277.787-.831.831l-.448.05c-.765.078-1.332.3-1.704.665-.37.366-.583.905-.64 1.614l-.315 3.79c-.022.277-.116.48-.282.607a.981.981 0 0 1-.615.192c-.244 0-.44-.067-.59-.2-.149-.133-.213-.332-.19-.599l.547-6.8a.712.712 0 0 1 .283-.566 1 1 0 0 1 .614-.198c.222 0 .398.063.532.19.133.128.194.313.183.557l-.05.683c.553-.854 1.429-1.325 2.625-1.414l.184-.016c.21-.022.379.022.505.132.128.111.192.272.192.482zm5.976 5.587c.41-.576.617-1.351.617-2.328 0-.831-.193-1.466-.574-1.904-.382-.437-.929-.656-1.636-.656-.777 0-1.37.288-1.78.864-.408.577-.613 1.353-.613 2.328 0 .843.191 1.48.572 1.913.383.431.933.648 1.653.648.766 0 1.352-.289 1.761-.865zm-5.199.333c-.322-.6-.482-1.291-.482-2.079 0-.91.169-1.7.507-2.377a3.69 3.69 0 0 1 1.428-1.563c.615-.366 1.327-.549 2.135-.549.797 0 1.49.163 2.076.49a3.41 3.41 0 0 1 1.363 1.38c.322.593.482 1.29.482 2.087 0 .909-.168 1.7-.506 2.37a3.712 3.712 0 0 1-1.43 1.554c-.614.366-1.33.549-2.15.549-.787 0-1.474-.161-2.062-.482a3.334 3.334 0 0 1-1.361-1.38zm15.766-4.739c-.398.4-.653.98-.764 1.746h4.287c.022-.765-.136-1.347-.474-1.746-.337-.4-.817-.598-1.437-.598-.676 0-1.213.199-1.612.598zm4.81 2.535c-.116.117-.274.175-.474.175h-5.166c.011.82.221 1.455.632 1.905.408.448 1.002.673 1.778.673.775 0 1.493-.222 2.158-.666a.676.676 0 0 1 .366-.116c.155 0 .282.061.383.183a.662.662 0 0 1 .148.432c0 .256-.11.471-.332.649-.299.243-.711.443-1.237.598a5.549 5.549 0 0 1-1.587.233c-.798 0-1.496-.161-2.093-.482a3.36 3.36 0 0 1-1.387-1.38c-.327-.6-.49-1.291-.49-2.078 0-.877.168-1.655.506-2.337a3.818 3.818 0 0 1 1.42-1.587c.61-.377 1.313-.567 2.11-.567 1.107 0 1.959.33 2.551.99.592.66.888 1.616.888 2.868 0 .222-.057.391-.174.507zm4.466-4.58l-.034.416h1.646c.222 0 .39.055.506.166a.59.59 0 0 1 .175.448c0 .455-.255.682-.764.682h-1.662l-.482 6.102c-.011.267-.102.466-.273.6a.971.971 0 0 1-.607.2.87.87 0 0 1-.582-.2c-.155-.134-.227-.333-.215-.6l.481-6.102h-.98c-.221 0-.393-.055-.515-.166a.573.573 0 0 1-.183-.449c0-.221.066-.39.2-.507.132-.117.326-.174.58-.174h.999l.016-.217c.177-2.127 1.323-3.258 3.438-3.391l.35-.017c.586-.033.88.161.88.582 0 .21-.06.372-.183.482-.122.111-.299.177-.53.199l-.45.033c-.587.045-1.022.223-1.304.533-.283.31-.452.77-.507 1.38zm6.922-1.38c-.283.31-.452.77-.508 1.38l-.033.416h1.645c.223 0 .391.055.507.166.116.11.174.26.174.448 0 .455-.255.682-.763.682h-1.662l-.482 6.102c-.011.267-.102.466-.274.6a.97.97 0 0 1-.607.2.867.867 0 0 1-.581-.2c-.155-.134-.227-.333-.216-.6l.482-6.102h-.98c-.221 0-.394-.055-.515-.166a.573.573 0 0 1-.184-.449c0-.221.067-.39.2-.507.132-.117.327-.174.582-.174h.997l.017-.217c.177-2.127 1.323-3.258 3.438-3.391l.349-.017c.587-.033.88.161.88.582 0 .21-.06.372-.182.482-.123.111-.3.177-.531.199l-.45.033c-.586.045-1.02.223-1.303.533zm8.464 5.503c0-.831-.19-1.466-.573-1.904-.382-.437-.928-.656-1.636-.656-.777 0-1.368.288-1.779.864-.41.577-.613 1.353-.613 2.328 0 .843.19 1.48.572 1.913.383.431.933.648 1.653.648.765 0 1.35-.289 1.761-.865.41-.576.615-1.351.615-2.328zm-4.453 4.041a3.336 3.336 0 0 1-1.362-1.38c-.32-.6-.482-1.291-.482-2.079 0-.91.17-1.7.507-2.377a3.681 3.681 0 0 1 1.43-1.563c.613-.366 1.326-.549 2.133-.549.798 0 1.49.163 2.077.49.588.328 1.04.788 1.363 1.38.321.593.482 1.29.482 2.087 0 .909-.17 1.7-.507 2.37a3.699 3.699 0 0 1-1.43 1.554c-.613.366-1.33.549-2.15.549-.787 0-1.473-.161-2.06-.482zm13.085-7.782c.128.111.192.272.192.482 0 .51-.278.787-.83.831l-.45.05c-.763.078-1.331.3-1.703.665-.37.366-.583.905-.639 1.614l-.316 3.79c-.022.277-.116.48-.281.607a.983.983 0 0 1-.615.192c-.245 0-.44-.067-.592-.2-.148-.133-.212-.332-.189-.599l.548-6.8a.709.709 0 0 1 .283-.566.995.995 0 0 1 .613-.198c.222 0 .399.063.533.19.132.128.194.313.181.557l-.049.683c.553-.854 1.428-1.325 2.626-1.414l.182-.016c.21-.022.38.022.506.132zm3.823 5.138a2.005 2.005 0 0 0-.016.3c0 .498.113.877.341 1.138.226.261.545.39.955.39.133 0 .265-.008.397-.023.134-.018.24-.025.317-.025.132 0 .239.052.316.157.077.106.116.252.116.44 0 .278-.107.472-.324.583-.216.11-.596.166-1.138.166-.842 0-1.496-.233-1.961-.698-.465-.467-.698-1.12-.698-1.963 0-.177.006-.315.018-.416l.299-3.856h-.981c-.222 0-.393-.056-.515-.167-.122-.11-.183-.266-.183-.466 0-.21.067-.373.2-.49.133-.116.326-.175.58-.175h.998l.132-1.729a.83.83 0 0 1 .284-.566.908.908 0 0 1 .615-.215c.254 0 .452.072.597.215.145.146.204.34.183.583l-.134 1.712h1.646c.21 0 .376.056.5.166.12.111.18.26.18.45 0 .455-.254.682-.763.682h-1.662zm14.795-4.589c.47.477.706 1.18.706 2.112 0 .222-.005.388-.017.499l-.332 4.272c-.023.255-.114.452-.274.591-.16.138-.367.208-.623.208-.254 0-.454-.07-.598-.208-.144-.139-.205-.336-.183-.59l.334-4.19c.009-.078.015-.194.015-.35 0-1.13-.542-1.696-1.627-1.696-.688 0-1.233.205-1.637.615-.405.41-.634.982-.69 1.713l-.316 3.907c-.022.255-.113.452-.273.591a.93.93 0 0 1-.624.208c-.254 0-.452-.07-.59-.208-.138-.139-.202-.336-.19-.59l.548-6.8a.716.716 0 0 1 .283-.558.99.99 0 0 1 .63-.208c.232 0 .416.067.549.2.133.133.193.316.183.548l-.05.582c.277-.432.65-.767 1.122-1.005.47-.239 1-.358 1.586-.358.908 0 1.598.238 2.068.715zm8.035 5.52c.411-.576.616-1.351.616-2.328 0-.831-.192-1.466-.574-1.904-.38-.437-.928-.656-1.636-.656-.776 0-1.368.288-1.779.864-.408.577-.614 1.353-.614 2.328 0 .843.191 1.48.573 1.913.383.431.934.648 1.653.648.765 0 1.352-.289 1.762-.865zm-3.837 1.713a3.339 3.339 0 0 1-1.363-1.38c-.32-.6-.48-1.291-.48-2.079 0-.91.168-1.7.505-2.377a3.693 3.693 0 0 1 1.43-1.563c.615-.366 1.326-.549 2.135-.549.797 0 1.49.163 2.075.49a3.41 3.41 0 0 1 1.363 1.38c.322.593.482 1.29.482 2.087 0 .909-.168 1.7-.506 2.37a3.705 3.705 0 0 1-1.43 1.554c-.614.366-1.331.549-2.151.549-.786 0-1.473-.161-2.06-.482zm15.277-5.121c0 .222-.006.388-.017.499l-.332 4.272c-.023.255-.115.452-.274.591-.16.138-.369.208-.624.208-.254 0-.453-.07-.598-.208-.144-.139-.204-.336-.183-.59l.333-4.19a2.94 2.94 0 0 0 .016-.35c0-1.13-.542-1.696-1.627-1.696-.687 0-1.232.205-1.637.615-.405.41-.633.982-.69 1.713l-.315 3.907c-.022.255-.114.452-.274.591-.16.138-.369.208-.624.208s-.451-.07-.589-.208c-.139-.139-.203-.336-.191-.59l.547-6.8a.725.725 0 0 1 .283-.558.994.994 0 0 1 .631-.208c.233 0 .416.067.55.2.133.133.193.316.182.548l-.05.582a2.81 2.81 0 0 1 1.121-1.005c.47-.239 1-.358 1.587-.358.908 0 1.598.238 2.069.715.47.477.706 1.18.706 2.112zm7.755 3.442c.415-.555.622-1.32.622-2.295 0-.842-.194-1.491-.581-1.946-.388-.454-.94-.681-1.661-.681-.73 0-1.307.28-1.728.839-.42.56-.631 1.323-.631 2.286 0 .855.194 1.506.582 1.954.387.45.94.674 1.66.674.743 0 1.322-.277 1.737-.831zm1.901-4.415c.29.593.433 1.283.433 2.07 0 .887-.161 1.671-.482 2.353-.32.682-.773 1.212-1.354 1.588-.582.376-1.25.564-2.001.564-.631 0-1.178-.132-1.637-.398a2.635 2.635 0 0 1-1.055-1.131l-.05.698c-.011.255-.099.452-.266.591a.931.931 0 0 1-.614.208c-.245 0-.438-.07-.582-.208-.145-.139-.21-.336-.2-.59l.831-10.326a.74.74 0 0 1 .283-.565.97.97 0 0 1 .631-.217c.243 0 .435.067.572.2.14.133.203.316.193.549l-.333 4.073c.276-.41.645-.73 1.105-.964.46-.233.96-.349 1.503-.349.676 0 1.276.161 1.803.482.526.322.933.779 1.22 1.372zm6.394 4.714c.399-.41.625-.937.68-1.58l.035-.465h-.466c-.82 0-1.462.044-1.927.133-.466.088-.797.233-.997.431-.2.2-.3.478-.3.832 0 .388.136.696.408.923.272.227.64.34 1.105.34.575 0 1.063-.204 1.463-.614zm2.425-3.226l-.33 4.29c-.013.244-.093.432-.243.566-.15.132-.346.2-.59.2-.243 0-.437-.076-.581-.226a.693.693 0 0 1-.182-.574l.032-.565c-.232.455-.552.8-.963 1.039-.41.238-.887.358-1.428.358-.81 0-1.477-.219-2.002-.657-.527-.438-.789-1-.789-1.687 0-.621.159-1.112.482-1.472.32-.36.832-.623 1.536-.79.703-.166 1.648-.25 2.832-.25h.599l.033-.415c.044-.632-.068-1.094-.332-1.388-.265-.294-.698-.441-1.296-.441-.732 0-1.54.245-2.426.732a.676.676 0 0 1-.332.083.541.541 0 0 1-.416-.183.625.625 0 0 1-.166-.432c0-.266.139-.488.416-.665a4.995 4.995 0 0 1 1.42-.633 6.109 6.109 0 0 1 1.67-.232c2.048 0 3.074.954 3.074 2.86 0 .21-.006.372-.018.482zm8.795-2.627c.47.477.706 1.18.706 2.112 0 .222-.006.388-.017.499l-.332 4.272c-.023.255-.114.452-.275.591-.16.138-.367.208-.623.208-.254 0-.454-.07-.597-.208-.145-.139-.206-.336-.184-.59l.333-4.19a2.94 2.94 0 0 0 .016-.35c0-1.13-.542-1.696-1.628-1.696-.686 0-1.232.205-1.637.615-.403.41-.634.982-.689 1.713l-.315 3.907c-.022.255-.113.452-.274.591a.926.926 0 0 1-.623.208c-.255 0-.452-.07-.59-.208-.138-.139-.203-.336-.191-.59l.548-6.8a.715.715 0 0 1 .282-.558.994.994 0 0 1 .631-.208c.233 0 .416.067.549.2.133.133.193.316.184.548l-.05.582a2.8 2.8 0 0 1 1.12-1.005c.471-.239 1-.358 1.588-.358.908 0 1.597.238 2.068.715zm9.533 6.9c0 .2-.087.382-.258.549a.805.805 0 0 1-.573.25.707.707 0 0 1-.532-.25l-3.672-3.642-.25 3.093c-.022.256-.116.45-.281.582a.92.92 0 0 1-.598.2.838.838 0 0 1-.598-.217c-.156-.144-.222-.343-.2-.598l.815-10.292c.01-.255.104-.449.28-.583.178-.132.383-.2.616-.2.244 0 .438.07.582.209.143.139.211.34.198.607l-.513 6.5 3.92-3.508a.735.735 0 0 1 .532-.232c.2 0 .373.075.524.225a.7.7 0 0 1 .223.507.713.713 0 0 1-.249.532l-3.157 2.777 2.991 3.009c.133.132.2.293.2.482zm12.567-10.979c.092.092.13.218.114.38l-.31 3.898c-.023.352-.191.529-.506.529-.145 0-.256-.044-.332-.132-.076-.089-.109-.22-.092-.397l.194-2.484-1.136 1.92a.906.906 0 0 1-.23.265.478.478 0 0 1-.277.08.375.375 0 0 1-.246-.08.69.69 0 0 1-.178-.265l-.851-1.851-.195 2.415c-.008.177-.058.308-.15.397a.508.508 0 0 1-.367.132c-.146 0-.257-.044-.334-.132-.076-.089-.11-.22-.102-.397l.31-3.899a.558.558 0 0 1 .178-.38.528.528 0 0 1 .361-.137c.2 0 .352.119.46.356l1.195 2.691 1.62-2.69c.146-.238.323-.357.53-.357.137 0 .251.046.343.138zm-5.287.322c0 .307-.18.46-.539.46h-1.126l-.277 3.507a.494.494 0 0 1-.177.38.602.602 0 0 1-.397.138.516.516 0 0 1-.373-.138.468.468 0 0 1-.132-.38l.286-3.507h-1.113c-.315 0-.471-.138-.471-.414 0-.307.175-.46.528-.46h3.32z"/></g></g></g></g></g></g></g></svg>