<svg xmlns="http://www.w3.org/2000/svg" width="170" height="50" viewBox="0 0 170 50"><defs><linearGradient id="a3nja" x1="22.31" x2="16.74" y1="10.88" y2="31.86" gradientUnits="userSpaceOnUse"><stop offset="0" stop-color="#00a0ff"/><stop offset=".01" stop-color="#00a1ff"/><stop offset=".26" stop-color="#00beff"/><stop offset=".51" stop-color="#00d2ff"/><stop offset=".76" stop-color="#00dfff"/><stop offset="1" stop-color="#00e3ff"/></linearGradient><linearGradient id="a3njb" x1="42.26" x2="12.03" y1="25" y2="25" gradientUnits="userSpaceOnUse"><stop offset="0" stop-color="#ffe000"/><stop offset=".41" stop-color="#ffbd00"/><stop offset=".78" stop-color="orange"/><stop offset="1" stop-color="#ff9c00"/></linearGradient><linearGradient id="a3njc" x1="31.01" x2="2.58" y1="29.97" y2="46.89" gradientUnits="userSpaceOnUse"><stop offset="0" stop-color="#ff3a44"/><stop offset="1" stop-color="#c31162"/></linearGradient><linearGradient id="a3njd" x1="9.11" x2="21.8" y1="7.02" y2="14.57" gradientUnits="userSpaceOnUse"><stop offset="0" stop-color="#32a071"/><stop offset=".07" stop-color="#2da771"/><stop offset=".48" stop-color="#15cf74"/><stop offset=".8" stop-color="#06e775"/><stop offset="1" stop-color="#00f076"/></linearGradient></defs><g><g><g/><g><g><g><g><g><path d="M163.053 50H6.273C2.817 50 0 47.182 0 43.75V6.25C0 2.805 2.816 0 6.274 0h156.78c3.454 0 6.273 2.805 6.273 6.25v37.5c0 3.432-2.819 6.25-6.274 6.25z"/></g><g><path fill="#a6a6a6" d="M163.053 1c2.9 0 5.274 2.36 5.274 5.25v37.5c0 2.89-2.358 5.25-5.274 5.25H6.273C3.374 49 1 46.64 1 43.75V6.25C1 3.36 3.358 1 6.274 1zM6.273 0C2.817 0 0 2.818 0 6.25v37.5C0 47.195 2.816 50 6.274 50h156.78c3.454 0 6.273-2.805 6.273-6.25V6.25c0-3.432-2.819-6.25-6.274-6.25z"/></g><g><path fill="#fff" d="M89.2 16.543c-1.13 0-2.084-.396-2.838-1.175a4.006 4.006 0 0 1-1.146-2.868c0-1.138.386-2.101 1.146-2.865.751-.78 1.704-1.175 2.835-1.175 1.118 0 2.072.396 2.838 1.175.76.789 1.146 1.752 1.146 2.865-.012 1.14-.399 2.104-1.146 2.865-.75.785-1.704 1.178-2.835 1.178zm-33.645 0c-1.106 0-2.066-.39-2.85-1.16-.78-.767-1.175-1.736-1.175-2.88s.396-2.113 1.174-2.88c.77-.77 1.73-1.16 2.85-1.16.549 0 1.082.11 1.592.33.502.216.91.509 1.212.867l.075.09-.844.83-.087-.103c-.477-.568-1.116-.845-1.96-.845-.754 0-1.41.268-1.953.798-.545.533-.822 1.231-.822 2.076s.277 1.543.822 2.076c.542.53 1.2.798 1.953.798.804 0 1.48-.268 2.006-.798.312-.312.505-.748.573-1.3h-2.707v-1.166h3.87l.015.106c.028.197.056.4.056.586 0 1.076-.324 1.946-.966 2.588-.729.76-1.682 1.147-2.834 1.147zm44.735-.165h-1.193l-3.654-5.851.03 1.053v4.795h-1.192V8.628h1.361l.037.06 3.436 5.51-.03-1.05v-4.52h1.205zm-21.264 0V9.793H76.93V8.628h5.398v1.166h-2.096v6.584zm-4.286 0v-7.75h1.206v7.75zm-5.57 0h-1.205V9.793h-2.096V8.628h5.398v1.166H69.17zm-4.065-.013h-4.622V8.628h4.622v1.166h-3.414v2.126h3.081v1.153h-3.08v2.126h3.413zm22.142-1.798c.539.539 1.193.81 1.953.81.782 0 1.42-.265 1.953-.81.53-.53.798-1.225.798-2.064s-.268-1.537-.795-2.064a2.672 2.672 0 0 0-1.953-.81c-.782 0-1.42.265-1.95.81-.53.53-.797 1.225-.797 2.064s.265 1.537.791 2.064z"/></g><g><path fill="#fff" d="M90.431 32.51c0 3.068-2.386 5.318-5.33 5.318-2.928 0-5.33-2.263-5.33-5.318 0-3.082 2.386-5.317 5.33-5.317s5.33 2.235 5.33 5.317zm-2.333-.012c0-1.917-1.387-3.223-2.997-3.223-1.607 0-2.997 1.306-2.997 3.223 0 1.889 1.387 3.223 2.997 3.223 1.61 0 3-1.322 2.997-3.223zm-9.296.012c0 3.068-2.386 5.318-5.33 5.318-2.928 0-5.33-2.263-5.33-5.318 0-3.082 2.387-5.317 5.33-5.317 2.941 0 5.33 2.235 5.33 5.317zm-2.333-.012c0-1.917-1.387-3.223-2.997-3.223-1.606 0-2.996 1.306-2.996 3.223 0 1.889 1.386 3.223 2.996 3.223 1.611 0 2.997-1.322 2.997-3.223zm-16.834-3.68s0-.022-.002-.025h7.619c.084.402.124.876.124 1.402 0 1.693-.47 3.791-1.956 5.277-1.458 1.516-3.302 2.32-5.76 2.32-4.554 0-8.37-3.697-8.37-8.252 0-4.541 3.82-8.25 8.37-8.25 2.511 0 4.302.988 5.648 2.278l-1.595 1.596c-.969-.904-2.274-1.611-4.065-1.611-3.318 0-5.912 2.681-5.912 6.001 0 3.32 2.594 6 5.912 6 2.152 0 3.374-.86 4.165-1.652.638-.639 1.056-1.571 1.221-2.834h-5.399zm-.003-.025zm56.6 1.776l.25.593-7.106 2.945c.555 1.07 1.39 1.612 2.583 1.612 1.18 0 2.012-.582 2.61-1.472l1.804 1.21c-.583.873-1.997 2.36-4.427 2.36-3.024 0-5.273-2.332-5.273-5.318 0-3.164 2.273-5.318 5.008-5.318 2.76 0 4.106 2.195 4.552 3.388zm.25.593zm-2.748-.789c-.264-.667-1.04-1.125-1.972-1.125-1.18 0-2.831 1.044-2.775 3.098zm-10.519-8.498h2.333v15.623h-2.333zm-3.819 6.499v-.876h2.205v9.542c0 3.931-2.317 5.543-5.052 5.543-2.567 0-4.122-1.737-4.704-3.14l2.027-.848c.362.861 1.25 1.889 2.68 1.889 1.747 0 2.831-1.093 2.831-3.123v-.764h-.084c-.526.64-1.542 1.21-2.803 1.21-2.663 0-5.093-2.307-5.093-5.293 0-2.999 2.442-5.334 5.093-5.334 1.277 0 2.277.567 2.803 1.194zm.14 4.14c0-1.861-1.237-3.236-2.832-3.236-1.61 0-2.956 1.359-2.956 3.236 0 1.861 1.346 3.207 2.956 3.207 1.598 0 2.848-1.347 2.832-3.207zm27.621-10.64c2.594 0 5.124 1.886 5.124 4.86s-2.539 4.848-5.12 4.848h-3.25v5.916h-2.333V21.875h5.579zm.069 7.525c1.735 0 2.735-1.455 2.735-2.681 0-1.237-.988-2.68-2.735-2.68h-3.318v5.361zm19.139 2.095v5.986h-2.25v-1.21h-.084c-.538.82-1.402 1.527-2.968 1.527-2.041 0-3.872-1.346-3.872-3.444 0-2.291 2.264-3.513 4.497-3.513 1.097 0 2.013.361 2.43.598v-.165c-.027-1.291-1.249-2.014-2.457-2.014-.863 0-1.679.293-2.125 1.153l-2.068-.86c.722-1.636 2.47-2.388 4.165-2.388 2.662 0 4.732 1.543 4.732 4.33zm-2.262 1.752c-.611-.305-1.097-.527-2.125-.527-1.137 0-2.47.458-2.47 1.668 0 .96 1.069 1.334 1.832 1.334a2.808 2.808 0 0 0 2.763-2.475zm13.046-5.748l-6.408 14.738h-2.43l2.374-5.265-4.165-9.473h2.511l2.775 6.777h.084l2.68-6.777zm-23.581-5.623h2.333v15.623h-2.333z"/></g><g><path fill="url(#a3nja)" d="M13.03 9.415c-.361.39-.57.985-.57 1.764v27.64c0 .78.209 1.375.583 1.75l.096.084 15.476-15.487v-.346L13.127 9.33z"/></g><g><path fill="url(#a3njb)" d="M33.762 30.342L28.6 25.177v-.362l5.162-5.165.112.069 6.106 3.472c1.747.985 1.747 2.612 0 3.61l-6.106 3.472z"/></g><g><path fill="url(#a3njc)" d="M33.877 30.277L28.601 25 13.03 40.583c.57.61 1.527.68 2.595.084l18.251-10.39"/></g><g><path fill="url(#a3njd)" d="M33.878 19.722L15.625 9.348c-1.068-.61-2.028-.527-2.595.084L28.603 25l5.274-5.277z"/></g><g opacity=".2"><path d="M33.771 30.17L15.645 40.476c-1.013.583-1.916.542-2.499.012l-.096.097.096.084c.583.527 1.486.57 2.499-.013l18.25-10.374z"/></g><g opacity=".12"><path d="M39.984 26.624l-6.234 3.541.113.112 6.105-3.472c.875-.499 1.305-1.154 1.305-1.805-.053.599-.498 1.166-1.29 1.624z"/></g><g opacity=".25"><path fill="#fff" d="M15.625 9.534L39.982 23.38c.79.446 1.236 1.03 1.305 1.624 0-.65-.43-1.306-1.305-1.805L15.625 9.354c-1.747-1-3.165-.166-3.165 1.832v.181c0-2 1.418-2.82 3.165-1.833z"/></g></g></g></g></g></g></g></svg>