<svg xmlns="http://www.w3.org/2000/svg" width="40" height="40" viewBox="0 0 40 40"><defs><clipPath id="7twta"><path fill="#fff" d="M0-.09h40v40H0z"/></clipPath></defs><g><g><g/><g><path fill="none" stroke="#000" stroke-miterlimit="20" stroke-width="4" d="M0-.09v0h40v40H0v0z" clip-path="url(&quot;#7twta&quot;)"/></g><g><g/><g><g><path d="M15.03 17.265h-3.733V27.78h3.733zm.293-3.344c0-1.044-.968-1.891-2.161-1.891-1.194 0-2.162.847-2.162 1.891 0 1.045.968 1.91 2.162 1.91 1.193 0 2.161-.865 2.161-1.91zM29.004 27.78v-5.776c0-2.827-.695-5.003-4.472-5.003-1.816 0-3.033.872-3.532 1.698h-.052v-1.434h-3.58V27.78h3.729v-5.207c0-1.37.297-2.696 2.238-2.696 1.912 0 1.94 1.564 1.94 2.784v5.119z"/></g></g></g></g></g></svg>