<svg xmlns="http://www.w3.org/2000/svg" width="39" height="40" viewBox="0 0 39 40"><g><g><g><path fill="#222" d="M36.862 11.992a5.613 5.613 0 0 0-7.174-1.975 5.509 5.509 0 0 0-2.428 7.412 5.526 5.526 0 0 0 3.97 2.936c-.208 6.545-5.694 11.684-12.255 11.477-6.372-.202-11.45-5.384-11.507-11.745a11.686 11.686 0 0 1 7.65-10.987 1.87 1.87 0 0 0 1.193-2.162l-.014-.059a1.862 1.862 0 0 1 1.66-2.264 15.43 15.43 0 0 1 3.126.031 1.89 1.89 0 0 0 2.095-1.774 1.94 1.94 0 0 0-1.78-1.985A19.588 19.588 0 0 0 19.352.79C8.664.79 0 9.435 0 20.1s8.665 19.31 19.353 19.31c10.688 0 19.352-8.646 19.352-19.31 0-1.888-.38-5.958-1.843-8.108z"/></g><g><path fill="#222" d="M26.655 2.26c1.107 0 2.004.896 2.004 2 0 1.105-.897 2-2.004 2a2.003 2.003 0 0 1-2.005-2c0-1.104.898-2 2.005-2z"/></g></g></g></svg>