<svg xmlns="http://www.w3.org/2000/svg" width="57" height="35" viewBox="0 0 57 35"><g><g><g><path fill="#ea5c0f" d="M21.06 30.97h15.303V3.63H21.06z"/></g><g><path fill="#dd0c17" d="M22.037 17.306c0-5.546 2.612-10.485 6.68-13.669A17.48 17.48 0 0 0 17.908-.08C8.25-.08.42 7.704.42 17.306c0 9.603 7.83 17.387 17.488 17.387 4.08 0 7.834-1.389 10.81-3.717-4.069-3.184-6.68-8.123-6.68-13.67z"/></g><g><path fill="#f79e1b" d="M57.007 17.306c0 9.603-7.83 17.387-17.489 17.387-4.08 0-7.833-1.389-10.808-3.717 4.067-3.184 6.68-8.123 6.68-13.67 0-5.546-2.613-10.485-6.68-13.669A17.478 17.478 0 0 1 39.518-.08c9.66 0 17.49 7.784 17.49 17.386z"/></g><g><path fill="#f69f00" d="M56.339 28.233v-.63l-.192.544h-.13l-.19-.542v.628H55.7V27.4h.177l.205.573.203-.573h.178v.833zm-1.122 0v-.691h-.227v-.14h.578v.14h-.227v.691z"/></g></g></g></svg>