<svg xmlns="http://www.w3.org/2000/svg" width="176" height="59" viewBox="0 0 176 59"><g><g><g/><g><g><g><g><g><path fill="#aaa" d="M71.775-.09l16.747 37.309-68.619 21.077L0 3.967zM45.018 19.366c-4.466 2.188-6.765 5.958-6.406 11.016.352 4.975 3.136 8.163 7.766 9.845 3.73 1.354 7.558 1.538 11.439.986 1.05-.15 2.079-.435 3.066-.681l.587-.142v-5.378c-2.698.258-5.149.775-7.571.659-3.519-.168-5.834-2.64-6.009-5.816-.253-4.61 3.229-7.417 8.34-6.614 1.355.212 2.674.655 4.068 1.053l.602.166v-6.019c-5.493-1.584-10.821-1.555-15.882.925zm58.097 13.278c.45 0 .88.062 1.293.186.41.124.772.376 1.082.756l-.907.827a1.514 1.514 0 0 0-.594-.524 1.884 1.884 0 0 0-.874-.198c-.31 0-.568.04-.773.122a1.396 1.396 0 0 0-.495.315 1.11 1.11 0 0 0-.262.413 1.256 1.256 0 0 0-.075.408c0 .349.099.617.302.803.202.186.452.338.75.454.299.117.625.22.979.314.353.094.679.224.977.39.299.168.55.393.75.676.204.283.304.673.304 1.17 0 .396-.076.753-.226 1.07a2.394 2.394 0 0 1-.612.804 2.666 2.666 0 0 1-.908.5c-.35.118-.723.176-1.117.176-.53 0-1.03-.094-1.502-.28a2.459 2.459 0 0 1-1.13-.861l.92-.792c.202.303.46.526.774.669.315.144.639.216.972.216.187 0 .376-.03.57-.088.195-.058.37-.145.53-.261.159-.117.29-.261.39-.431.1-.171.152-.37.152-.594 0-.318-.102-.561-.303-.728a2.658 2.658 0 0 0-.751-.42c-.3-.111-.624-.22-.978-.325a3.946 3.946 0 0 1-.978-.436 2.36 2.36 0 0 1-.75-.751c-.203-.315-.303-.74-.303-1.275 0-.241.052-.497.156-.768.106-.272.27-.52.496-.746.225-.225.514-.413.867-.564.352-.152.778-.227 1.274-.227zm59.425 2.794c.489 0 .902.086 1.239.256.338.17.615.394.833.669.218.276.374.587.472.932.096.345.145.697.145 1.054v.372h-4.425c0 .24.053.46.159.658.103.198.242.367.412.506.172.14.369.249.593.327.226.077.459.116.7.116.326 0 .609-.076.849-.227.24-.152.462-.351.664-.6l.79.606c-.581.753-1.395 1.129-2.443 1.129-.435 0-.83-.074-1.182-.221a2.575 2.575 0 0 1-.896-.611 2.725 2.725 0 0 1-.566-.92 3.293 3.293 0 0 1-.197-1.147c0-.411.072-.793.215-1.147.145-.353.342-.66.594-.92.252-.26.553-.463.902-.611.35-.147.73-.221 1.142-.221zm-12.294 0c.488 0 .902.086 1.239.256.338.17.615.394.833.669.217.276.374.587.47.932.098.345.147.697.147 1.054v.372h-4.425c0 .24.052.46.158.658.104.198.242.367.413.506.17.14.368.249.593.327.226.077.458.116.699.116.326 0 .609-.076.85-.227.24-.152.462-.351.663-.6l.792.606c-.582.753-1.397 1.129-2.444 1.129a3.04 3.04 0 0 1-1.182-.221 2.575 2.575 0 0 1-.896-.611 2.71 2.71 0 0 1-.566-.92 3.27 3.27 0 0 1-.198-1.147c0-.411.072-.793.216-1.147.144-.353.34-.66.594-.92.252-.26.553-.463.902-.611.349-.147.73-.221 1.142-.221zm-15.754 0c.489 0 .902.086 1.24.256.338.17.615.394.832.669.218.276.375.587.473.932.095.345.144.697.144 1.054v.372h-4.424c0 .24.053.46.158.658.104.198.242.367.413.506.17.14.369.249.593.327.225.077.458.116.7.116.326 0 .609-.076.849-.227.24-.152.46-.351.664-.6l.79.606c-.581.753-1.395 1.129-2.444 1.129a3.05 3.05 0 0 1-1.182-.221 2.575 2.575 0 0 1-1.461-1.531 3.27 3.27 0 0 1-.197-1.147c0-.411.07-.793.215-1.147.144-.353.342-.66.594-.92.252-.26.552-.463.902-.611.35-.147.73-.221 1.14-.221zm-5.518.011c.403 0 .79.072 1.158.216.37.143.69.362.961.657l-.792.722a2.202 2.202 0 0 0-.61-.46 1.736 1.736 0 0 0-.764-.157c-.287 0-.537.053-.75.157-.215.105-.393.25-.537.431a1.922 1.922 0 0 0-.325.63c-.075.235-.11.482-.11.738s.041.5.126.728c.086.23.206.43.362.6.155.17.341.304.558.401.218.097.463.145.735.145.294 0 .546-.052.755-.157a1.9 1.9 0 0 0 .582-.46l.747.745a2.344 2.344 0 0 1-.95.653 3.33 3.33 0 0 1-1.146.197 3.14 3.14 0 0 1-1.17-.209 2.701 2.701 0 0 1-.914-.588 2.59 2.59 0 0 1-.594-.908 3.147 3.147 0 0 1-.21-1.17c0-.427.07-.819.21-1.176.14-.357.336-.664.588-.92.252-.256.555-.456.908-.599a3.1 3.1 0 0 1 1.182-.216zm-19.49-.011c.488 0 .902.086 1.24.256.338.17.615.394.832.669.217.276.375.587.472.932.096.345.145.697.145 1.054v.372h-4.424c0 .24.052.46.157.658.105.198.242.367.414.506.17.14.368.249.593.327.225.077.457.116.7.116.325 0 .608-.076.85-.227.24-.152.46-.351.662-.6l.792.606c-.582.753-1.397 1.129-2.445 1.129-.436 0-.828-.074-1.182-.221a2.575 2.575 0 0 1-1.461-1.531 3.248 3.248 0 0 1-.198-1.147c0-.411.071-.793.216-1.147.143-.353.341-.66.594-.92.252-.26.552-.463.902-.611.35-.147.73-.221 1.141-.221zM15.831 18.166l-1.657.004v22.994h8.665v-6.832l1.57-.058c2.025-.08 3.773-.197 5.23-.643 2.106-.646 3.538-1.469 5.126-2.896 3.593-3.232 2.703-8.823-1.564-11.08-1.391-.735-3.014-1.36-4.555-1.419-2.628-.101-5.26-.11-7.937-.098zM154.74 35.577l1.653 4.226 1.584-4.226h1.117l-2.166 5.52h-1.152l-2.247-5.52zm-36.453 0l1.653 4.226 1.584-4.226h1.117l-2.166 5.52h-1.152l-2.247-5.52zm-2.13-.14c.17 0 .326.023.464.07l-.046 1.13a2.87 2.87 0 0 0-.256-.059 1.468 1.468 0 0 0-.256-.023c-.512 0-.904.144-1.176.431-.27.287-.408.733-.408 1.34v2.77h-1.047v-5.519h1.047v.85h.023c.071-.147.164-.282.28-.402.117-.12.247-.223.39-.308a2.022 2.022 0 0 1 .985-.28zm51.459-3.143v8.802h-1.047v-8.802zm-24.554.559v7.195h3.784v1.048h-4.902v-8.243zm-18.372 2.724v5.519h-1.048v-5.519zm51.298-2.724v8.243h-1.118v-6.962l-1.514 1.397-.651-.78 2.294-1.898zM74.145 18.019h-8.799v22.99h8.799zm35.315 18.257a1.712 1.712 0 0 0-1.59 1.043c-.08.189-.12.377-.12.564h3.306a2.248 2.248 0 0 0-.11-.64 1.447 1.447 0 0 0-.298-.507 1.36 1.36 0 0 0-.494-.337c-.2-.082-.43-.123-.694-.123zm53.056 0a1.705 1.705 0 0 0-1.589 1.043 1.408 1.408 0 0 0-.123.564h3.307a2.248 2.248 0 0 0-.11-.64 1.356 1.356 0 0 0-.792-.844 1.805 1.805 0 0 0-.693-.123zm-12.294 0a1.716 1.716 0 0 0-1.59 1.043 1.406 1.406 0 0 0-.122.564h3.307a2.248 2.248 0 0 0-.11-.64 1.445 1.445 0 0 0-.297-.507 1.364 1.364 0 0 0-.495-.337c-.2-.082-.43-.123-.693-.123zm-15.754 0a1.716 1.716 0 0 0-1.589 1.043 1.423 1.423 0 0 0-.122.564h3.307a2.214 2.214 0 0 0-.111-.64 1.352 1.352 0 0 0-.791-.844c-.2-.082-.43-.123-.694-.123zm-10.302-3.446c.208 0 .389.076.541.227a.737.737 0 0 1 .226.541c0 .209-.075.39-.226.541a.74.74 0 0 1-.541.228.738.738 0 0 1-.542-.228.736.736 0 0 1-.227-.541c0-.21.075-.39.227-.541a.74.74 0 0 1 .542-.227zm-96.441-8.607c.54.746.605 2.358.16 3.192-.856 1.607-2.441 1.706-4.152 1.689l-.828-.011v-6.066c1.88-.36 3.713-.333 4.82 1.196zm90.491-6.433c.45 0 .881.062 1.292.186.411.124.773.376 1.083.756l-.908.827a1.514 1.514 0 0 0-.594-.524 1.877 1.877 0 0 0-.873-.198c-.31 0-.568.041-.774.122-.206.082-.37.187-.495.315-.124.128-.21.266-.262.413-.05.148-.076.284-.076.408 0 .35.101.617.302.803.203.186.453.338.752.454.298.117.624.221.978.314a4.2 4.2 0 0 1 .977.391c.3.167.55.392.751.675.203.283.303.673.303 1.17 0 .396-.075.753-.227 1.071a2.37 2.37 0 0 1-.61.803c-.258.218-.56.385-.909.501a3.5 3.5 0 0 1-1.118.175 4.077 4.077 0 0 1-1.502-.28 2.471 2.471 0 0 1-1.129-.86l.92-.793c.201.303.46.526.773.67.315.143.64.215.973.215a1.942 1.942 0 0 0 1.1-.348c.16-.118.29-.262.39-.432.102-.17.152-.369.152-.594 0-.318-.1-.56-.303-.728a2.654 2.654 0 0 0-.75-.419c-.3-.112-.626-.22-.98-.326a3.972 3.972 0 0 1-.977-.436 2.386 2.386 0 0 1-.75-.75c-.202-.316-.304-.74-.304-1.276 0-.24.053-.497.157-.768.105-.272.271-.52.496-.746.224-.225.513-.413.867-.564.353-.152.778-.227 1.275-.227zm-6.473 0c.45 0 .88.062 1.291.186.412.124.773.376 1.084.756l-.907.827a1.52 1.52 0 0 0-.594-.524 1.89 1.89 0 0 0-.874-.198c-.31 0-.569.041-.774.122a1.383 1.383 0 0 0-.494.315 1.097 1.097 0 0 0-.262.413 1.26 1.26 0 0 0-.076.408c0 .35.1.617.302.803.202.186.452.338.75.454.299.117.625.221.979.314a4.2 4.2 0 0 1 .977.391c.3.167.55.392.75.675.205.283.303.673.303 1.17 0 .396-.074.753-.225 1.071a2.4 2.4 0 0 1-.612.803 2.7 2.7 0 0 1-.909.501 3.49 3.49 0 0 1-1.117.175 4.068 4.068 0 0 1-1.501-.28 2.469 2.469 0 0 1-1.13-.86l.92-.793c.202.303.46.526.773.67.316.143.64.215.974.215a1.952 1.952 0 0 0 1.1-.348c.158-.118.288-.262.39-.432.1-.17.15-.369.15-.594 0-.318-.1-.56-.302-.728a2.654 2.654 0 0 0-.75-.419c-.3-.112-.626-.22-.98-.326a3.98 3.98 0 0 1-.978-.436 2.386 2.386 0 0 1-.75-.75c-.202-.316-.303-.74-.303-1.276 0-.24.053-.497.157-.768.105-.272.27-.52.496-.746.225-.225.514-.413.868-.564.352-.152.777-.227 1.274-.227zm17.603 0c.544 0 1.077.105 1.601.315.524.209.953.53 1.287.966l-.932.71a2.288 2.288 0 0 0-.885-.698 2.636 2.636 0 0 0-1.105-.245c-.467 0-.888.088-1.264.262a2.908 2.908 0 0 0-.967.716 3.31 3.31 0 0 0-.623 1.066c-.146.407-.22.843-.22 1.309 0 .435.07.846.21 1.235.14.388.34.729.604 1.024.264.295.586.528.967.699.381.17.81.256 1.293.256.472 0 .888-.097 1.245-.291.356-.194.66-.466.908-.815l.942.71-.096.12a5.126 5.126 0 0 1-.229.247c-.155.159-.36.318-.617.477a4.392 4.392 0 0 1-.926.419c-.36.12-.778.18-1.25.18-.653 0-1.24-.124-1.764-.372a4.26 4.26 0 0 1-1.34-.978 4.27 4.27 0 0 1-.844-1.368 4.296 4.296 0 0 1-.29-1.543c0-.636.104-1.224.314-1.764.208-.54.501-1.005.878-1.397.377-.392.83-.696 1.357-.914a4.547 4.547 0 0 1 1.746-.326zm16.382 1.385v1.55h1.502v.907h-1.502v2.503c0 .155.004.31.012.46.007.151.036.287.087.408.049.12.128.217.233.291.104.073.258.11.459.11.124 0 .252-.012.385-.035.131-.023.252-.066.36-.128v.955c-.124.07-.285.118-.483.145a3.668 3.668 0 0 1-.459.041c-.404 0-.717-.056-.938-.169a1.152 1.152 0 0 1-.489-.436 1.422 1.422 0 0 1-.186-.6c-.02-.22-.03-.444-.03-.67v-2.875h-1.211v-.908h1.211v-1.549zm24.32-1.734v8.801H169v-.79h-.022a2.008 2.008 0 0 1-.833.685 2.575 2.575 0 0 1-1.089.245c-.427 0-.812-.074-1.158-.22a2.572 2.572 0 0 1-.885-.618 2.774 2.774 0 0 1-.564-.92 3.175 3.175 0 0 1-.199-1.14c0-.412.066-.794.199-1.148a2.598 2.598 0 0 1 1.449-1.531 2.93 2.93 0 0 1 1.158-.22c.397 0 .769.083 1.118.25.349.166.616.393.804.68H169v-4.074zm-9.476 3.143c.488 0 .902.086 1.24.256.338.171.615.394.832.67.217.275.375.586.472.931.096.345.145.697.145 1.054v.372h-4.424c0 .241.052.46.157.658.105.198.242.367.414.506.17.14.368.25.593.327.225.077.457.116.699.116.326 0 .609-.076.85-.227.24-.152.461-.35.663-.6l.792.606c-.582.753-1.397 1.13-2.445 1.13-.436 0-.828-.075-1.182-.222a2.572 2.572 0 0 1-1.461-1.53 3.257 3.257 0 0 1-.198-1.148c0-.41.071-.793.216-1.147a2.81 2.81 0 0 1 .594-.919c.252-.26.552-.464.902-.612.349-.147.729-.22 1.141-.22zm-24.555 0c.49 0 .902.086 1.24.256.338.171.615.394.832.67.218.275.375.586.473.931.095.345.144.697.144 1.054v.372h-4.424c0 .241.053.46.158.658.104.198.242.367.413.506.171.14.37.25.593.327.225.077.458.116.7.116.326 0 .61-.076.85-.227.24-.152.46-.35.663-.6l.791.606c-.582.753-1.396 1.13-2.445 1.13a3.05 3.05 0 0 1-1.182-.222 2.572 2.572 0 0 1-.896-.61 2.732 2.732 0 0 1-.565-.92 3.303 3.303 0 0 1-.197-1.148c0-.41.071-.793.215-1.147.144-.353.342-.66.594-.919.252-.26.552-.464.902-.612.35-.147.73-.22 1.141-.22zM103.441 18c.582 0 1.093.066 1.531.198.44.132.818.308 1.141.53.322.22.59.475.803.762.214.288.382.582.507.885.124.302.213.605.268.908a4.193 4.193 0 0 1-.208 2.37c-.196.492-.484.93-.863 1.315a4.24 4.24 0 0 1-1.416.926c-.562.233-1.212.349-1.949.349h-2.689V18zm50.227-.699c.117 0 .239.004.367.011.128.008.266.031.413.07l-.116.932a1.528 1.528 0 0 0-.594-.105c-.194 0-.35.03-.466.087a.663.663 0 0 0-.273.251.94.94 0 0 0-.128.39c-.02.151-.03.324-.03.518v1.27h1.247v.907h-1.258v4.61h-1.048v-4.61h-1.187v-.908h1.187V19.49c0-.737.142-1.286.425-1.647.283-.36.77-.54 1.46-.54zm2.713 3.423v5.519h-1.049v-5.519zm-6.672 0v5.519h-1.047v-5.519zm-7.02-.14c.17 0 .326.023.465.07l-.046 1.13a3.273 3.273 0 0 0-.256-.06 1.573 1.573 0 0 0-.257-.022c-.512 0-.904.144-1.176.43-.27.288-.407.734-.407 1.34v2.77h-1.048v-5.518h1.048v.85h.023c.07-.147.163-.282.28-.402a1.87 1.87 0 0 1 .39-.308 2.004 2.004 0 0 1 .984-.28zm24.496.978c-.28 0-.532.05-.758.146-.224.097-.415.23-.57.395-.155.167-.276.37-.361.606a2.277 2.277 0 0 0-.127.774c0 .28.042.538.127.775.085.236.206.438.361.604.155.167.346.3.57.396.226.098.478.146.758.146.279 0 .531-.048.756-.146a1.652 1.652 0 0 0 .931-1c.086-.237.128-.496.128-.775s-.042-.537-.128-.774a1.73 1.73 0 0 0-.361-.606 1.677 1.677 0 0 0-.57-.395 1.891 1.891 0 0 0-.756-.146zm-65.502-2.514v6.147h1.41c.473 0 .92-.064 1.344-.192.423-.128.793-.32 1.111-.577a2.74 2.74 0 0 0 .758-.96c.186-.384.28-.833.28-1.345 0-.263-.044-.572-.13-.925a2.774 2.774 0 0 0-.482-1.007c-.237-.32-.564-.588-.984-.81-.419-.221-.963-.331-1.63-.331zm58.865 2.374a1.704 1.704 0 0 0-1.246.524 1.763 1.763 0 0 0-.344.52 1.414 1.414 0 0 0-.121.563h3.307a2.214 2.214 0 0 0-.111-.64 1.43 1.43 0 0 0-.297-.507 1.36 1.36 0 0 0-.494-.337c-.2-.082-.43-.123-.694-.123zm-24.555 0a1.699 1.699 0 0 0-1.244.524 1.728 1.728 0 0 0-.345.52c-.08.188-.122.376-.122.563h3.307a2.248 2.248 0 0 0-.11-.64 1.417 1.417 0 0 0-.298-.507 1.343 1.343 0 0 0-.494-.337 1.81 1.81 0 0 0-.694-.123zm13.192-3.446c.21 0 .391.076.541.227a.739.739 0 0 1 .228.541c0 .21-.076.391-.228.542a.737.737 0 0 1-.541.227.74.74 0 0 1-.541-.227.74.74 0 0 1-.227-.542c0-.209.076-.389.227-.541a.74.74 0 0 1 .541-.227zm6.671 0c.21 0 .39.076.542.227.15.152.226.332.226.541 0 .21-.076.391-.226.542a.742.742 0 0 1-.542.227.738.738 0 0 1-.541-.227.742.742 0 0 1-.228-.542c0-.209.077-.389.228-.541a.738.738 0 0 1 .541-.227zM69.667 5.454c-3.262-.008-5.369 1.952-5.392 5.019-.025 3.06 2.099 5.087 5.333 5.095 3.292.007 5.368-1.936 5.375-5.032.007-3.093-2.065-5.073-5.316-5.082z"/></g></g></g></g></g></g></g></svg>