<svg xmlns="http://www.w3.org/2000/svg" width="188" height="44" viewBox="0 0 188 44"><g><g><g/><g><g><g><g><g><path fill="#222" d="M47.242 3.769h16.989v3.629H50.76v8.9h12.098v3.63H50.76v9.073h14.415v3.629H47.242zm35.78 28.948l-5.835-7.69-5.835 7.69h-4.117l7.979-10.283-8.409-10.629h4.634l5.748 7.951 5.835-7.951h4.547L79.59 22.434l7.551 10.283zm9.782 11.147h-3.518V22.52c0-5.444 4.118-11.233 10.554-11.233 6.52 0 11.411 4.148 11.411 10.974 0 6.654-4.976 11.234-10.639 11.234-2.746 0-6.435-1.21-7.808-3.889zm14.758-21.603c0-4.666-3.003-7.43-8.323-7.172-2.574.087-6.52 1.987-6.178 8.642.086 2.16 2.317 6.22 7.208 6.22 4.204 0 7.293-2.419 7.293-7.69zm6.693-10.456h3.518v2.247c1.716-1.988 4.375-2.679 7.207-2.679v3.803c-.429-.087-4.634-.606-7.207 4.925v12.703h-3.518zm11.669 10.456c0-6.05 4.29-10.974 10.21-10.974 7.38 0 10.125 4.926 10.125 11.233v1.729h-16.474c.257 3.975 3.775 6.048 7.036 5.962 2.402-.086 4.033-.777 5.75-2.505l2.316 2.42c-2.145 2.073-4.891 3.455-8.237 3.455-6.264-.086-10.726-4.753-10.726-11.319zm9.953-7.43c-3.346 0-5.92 2.936-6.092 6.135h12.785c0-3.112-2.23-6.136-6.693-6.136zm14.754 12.618c0-.002.002-.003.004-.003zm1.464 1.466c.6.519 1.2.864 1.973 1.037 2.23.605 6.263.432 6.607-2.679.171-1.728-1.116-2.679-2.574-3.284-1.888-.69-3.948-.95-5.835-1.814-2.146-.95-3.517-2.592-3.517-5.011 0-6.31 8.922-7.346 12.955-4.408.172.173 2.145 1.987 2.06 1.987l-2.575 2.075c-1.286-1.556-2.488-2.334-5.233-2.334-1.373 0-3.261.605-3.604 2.074-.515 2.074 1.801 2.852 3.346 3.284 2.06.518 4.29.864 6.092 1.987 2.489 1.556 3.09 4.925 2.145 7.518-1.03 2.852-4.119 3.975-6.864 4.06-3.26.174-6.092-.863-8.409-3.195-.172 0-.6-.433-.6-.433l2.57-2.33c-.003.076 1.296 1.383 1.463 1.466zm14.071.864l2.571-2.33c-.002.077 1.295 1.383 1.462 1.466.6.519 1.202.864 1.973 1.037 2.23.605 6.265.432 6.608-2.679.17-1.728-1.116-2.679-2.575-3.284-1.888-.69-3.947-.95-5.834-1.814-2.145-.95-3.518-2.592-3.518-5.011 0-6.31 8.924-7.346 12.956-4.408.172.173 2.145 1.987 2.06 1.987l-2.574 2.075c-1.288-1.556-2.49-2.334-5.235-2.334-1.373 0-3.26.605-3.604 2.074-.514 2.074 1.802 2.852 3.346 3.284 2.06.518 4.292.864 6.093 1.987 2.488 1.556 3.09 4.925 2.145 7.518-1.03 2.852-4.118 3.975-6.865 4.06-3.26.174-6.091-.863-8.408-3.195-.172 0-.6-.433-.6-.433zm2.571-2.33c0-.002.001-.003.004-.003zm14.161-15.644V9.558h-.772v-.432h2.059v.432h-.772v2.247zm3.861 0V9.732l-.772 2.073h-.172l-.772-2.073v2.073h-.429V9.126h.687l.686 1.816.687-1.816h.686v2.679zM23.388 32.717l-2.574-6.913h-13.9l-2.575 6.913H.65L11.805 3.769h4.032l11.07 28.948zM8.459 22.262h10.896L13.692 7.917zM29.223 3.77h3.604v28.947h-3.604zm9.009 8.468h3.604v20.479h-3.604zm7.036-6.654c-2.745.086-4.977 2.333-5.062 5.098h-.515c-.086-2.765-2.317-5.012-5.062-5.098v-.346c2.745-.086 4.976-2.333 5.062-5.098h.515c.085 2.765 2.317 5.012 5.062 5.098z"/></g></g></g></g></g></g></g></svg>