<svg xmlns="http://www.w3.org/2000/svg" width="170" height="57" viewBox="0 0 170 57"><g><g><path fill="#222" d="M75.794 24.906a6.02 6.02 0 0 0 .005-.817c-.203-3.334-3.064-5.872-6.39-5.668l-.1-.005c-3.743-.17-6.915 2.737-7.083 6.49zm7.103 4.6a.824.824 0 0 1-.823.813H62.121c.438 4.025 3.802 7.09 7.84 7.143a15.281 15.281 0 0 0 9.766-2.354c.693-.482 1.174-.105 1.174.694v3.92a1.383 1.383 0 0 1-.587 1.495c-2.477 1.411-5.716 2.235-10.564 2.058a15.396 15.396 0 0 1-12.149-5.966 16.042 16.042 0 0 1-2.887-9.414 17.234 17.234 0 0 1 .516-4.213c1.256-5.108 5.188-11.146 14.168-11.146 12.265 0 13.85 11.498 13.5 16.97zM21.04 37.909v-8.755h-6.938c-5.34 0-6.408 3.176-6.408 4.766a3.46 3.46 0 0 0 1.467 2.894 5.409 5.409 0 0 0 3.11 1.095zm6.526-13.086v17.653a.87.87 0 0 1-.868.87h-14.85a12.369 12.369 0 0 1-7.84-2.248 8.649 8.649 0 0 1-3.134-7.154v-.095c0-8.908 9.672-10.085 12.83-10.085h7.336v-.646a4.712 4.712 0 0 0-2.348-4.25c-2.688-1.365-7.97-.858-12.372 1.86a.785.785 0 0 1-1.29-.459l-.27-4.425a.646.646 0 0 1 .316-.565 20.315 20.315 0 0 1 10.27-2.742c3.592 0 7.466 1.048 9.39 3.154 1.927 2.106 2.818 5.154 2.818 9.167zm82.104 3.072c0-1.201-.27-9.497-8.38-9.497-3.627 0-6.245 2.659-7.348 5.966a10.946 10.946 0 0 0 0 7.061c1.103 3.307 3.721 5.967 7.348 5.967 8.11 0 8.38-8.297 8.38-9.497zm6.644.011v14.605a20.656 20.656 0 0 1-.833 6.143 10.803 10.803 0 0 1-4.824 6.155c-3.31 1.894-7.712 2.012-14.25 1.447a.764.764 0 0 1-.798-.73v-4.472c0-.835.54-.953 1.314-.835 1.92.276 3.86.382 5.798.317 2.818-.176 7.22-1.094 7.22-6.142v-3.719a15.467 15.467 0 0 1-8.65 2.613 14.935 14.935 0 0 1-12.15-5.967 16.596 16.596 0 0 1 0-18.829 15.43 15.43 0 0 1 2.723-2.73c6.71-5.22 16.369-3.997 21.575 2.73a15.813 15.813 0 0 1 2.887 9.414zm21.622-13.64v3.531a.92.92 0 0 1-1.175 1.001c-5.705-1.177-9.214 1.365-9.214 6.65v17.063c0 .48-.39.87-.868.87h-5.048a.869.869 0 0 1-.868-.87V25.082a11.78 11.78 0 0 1 3.72-8.814 13.083 13.083 0 0 1 9.238-3.743c1.182.003 2.36.113 3.521.33.599.2.693.553.693 1.46v-.048zM38.961 42.512c0 .48-.39.87-.869.87h-5.047a.87.87 0 0 1-.869-.87V.912a.87.87 0 0 1 .857-.872h5.047c.48 0 .87.39.87.872v41.6zm11.855 0c0 .48-.39.87-.868.87H44.9a.87.87 0 0 1-.869-.87V.912a.87.87 0 0 1 .87-.872h5.047a.87.87 0 0 1 .868.872zm110.628-11.074a10.963 10.963 0 0 0 0-7.049c-1.104-3.307-3.733-6.049-7.348-5.967-3.616.082-6.233 2.66-7.337 5.967a10.946 10.946 0 0 0 0 7.061c1.092 3.306 3.709 6.049 7.337 5.966 3.626-.083 6.244-2.659 7.348-5.966zm4.812-12.934a16.048 16.048 0 0 1 2.888 9.415 16.04 16.04 0 0 1-2.888 9.414 15.33 15.33 0 0 1-2.723 2.73c-6.709 5.22-16.368 3.997-21.574-2.73a16.017 16.017 0 0 1-2.888-9.414 16.024 16.024 0 0 1 2.888-9.415 15.492 15.492 0 0 1 2.722-2.73c6.71-5.218 16.369-3.996 21.575 2.73z"/></g></g></svg>