<svg xmlns="http://www.w3.org/2000/svg" width="185" height="30" viewBox="0 0 185 30"><g><g><path fill="#222" d="M92.118 29.314c-6.276 0-10.052-3.859-10.06-10.774V1.233h6.82v17.035c0 3.113.982 4.71 3.278 4.71 2.38 0 3.514-1.56 3.514-4.71V1.233h6.784V18.54c0 6.765-4.132 10.774-10.334 10.774zm20.407-15.325c3.354 0 4.984-.859 4.994-3.345 0-2.29-1.443-3.225-4.45-3.225h-1.79v6.57zm11.852-3.458c0 3.58-1.64 6.533-4.403 8.205-1.762 1.046-3.945 1.243-6.83 1.243h-1.95v8.905h-6.782V1.233h9.2c2.923 0 5.143.196 7.017 1.514 2.465 1.71 3.748 4.317 3.748 7.784zm37.513 18.354h-6.783V1.233h6.118l10.185 15.363V1.233h6.773v27.652h-5.959L161.89 13.484zm-95.816-6.336c3.982 0 7.214-3.196 7.224-7.7 0-4.047-3.242-7.27-7.14-7.27-4.14 0-7.374 3.223-7.374 7.269 0 4.355 3.467 7.7 7.29 7.7zm14.222-7.653c0 3.961-1.405 7.503-4.02 10.186-2.688 2.803-6.352 4.316-10.212 4.316-4.094 0-7.608-1.476-10.333-4.354-2.605-2.767-3.936-6.187-3.936-10.271 0-3.812 1.49-7.317 4.216-9.998 2.727-2.682 6.165-4.046 10.1-4.046 3.71 0 7.214 1.439 9.903 4.083 2.811 2.757 4.292 6.298 4.282 10.084zm59.249 7.653c3.973 0 7.214-3.196 7.224-7.7 0-4.047-3.242-7.27-7.14-7.27-4.131 0-7.373 3.223-7.373 7.269 0 4.355 3.467 7.7 7.289 7.7zm9.941-17.737c2.81 2.757 4.292 6.298 4.282 10.084 0 3.961-1.406 7.503-4.02 10.186-2.689 2.803-6.352 4.316-10.212 4.316-4.095 0-7.598-1.476-10.335-4.354-2.604-2.767-3.934-6.187-3.934-10.271 0-3.812 1.489-7.317 4.216-9.998 2.727-2.682 6.155-4.046 10.1-4.046 3.7 0 7.214 1.439 9.902 4.083zM4.586 25.035C1.97 22.268.65 18.848.66 14.755c0-3.812 1.48-7.316 4.206-9.999C7.601 2.074 11.031.672 14.966.672c5.922 0 11.112 3.617 13.332 9.533h-7.72c-1.724-1.785-3.513-2.683-5.696-2.683-4.057 0-7.252 3.299-7.252 7.27 0 4.402 3.43 7.784 7.252 7.784 2.576 0 4.871-1.326 6.24-3.738h-7.917v-5.523h15.796c.037.627.075 1.253.075 1.833 0 3.111-.778 5.755-2.38 8.092-2.65 3.85-7.093 6.187-11.814 6.187-4.094 0-7.57-1.515-10.297-4.393zm34.31-11.046c3.352 0 4.992-.859 4.992-3.345 0-2.29-1.443-3.225-4.44-3.225h-1.875v6.57zm12.356 14.895h-8.385l-5.303-8.905v8.905h-6.783V1.233h9.2c2.924 0 5.144.196 7.018 1.514 2.463 1.71 3.748 4.318 3.748 7.738 0 4.475-2.343 7.812-6.278 8.905zm129.742-27.51a1.718 1.718 0 0 0-.525 1.27c0 .505.177.926.525 1.281.346.354.777.532 1.274.532a1.71 1.71 0 0 0 1.274-.532c.347-.355.525-.785.525-1.282 0-.494-.178-.923-.525-1.27a1.726 1.726 0 0 0-1.274-.532 1.74 1.74 0 0 0-1.274.532zm-.206 2.747a2.017 2.017 0 0 1-.61-1.477c0-.57.197-1.055.61-1.468a2.018 2.018 0 0 1 1.47-.606c.582 0 1.078.205 1.48.606.404.403.61.888.61 1.468 0 .57-.197 1.066-.61 1.477a1.994 1.994 0 0 1-1.48.617 1.98 1.98 0 0 1-1.47-.617z"/></g></g></svg>