<svg xmlns="http://www.w3.org/2000/svg" width="70" height="70" viewBox="0 0 70 70"><g><g><g><g><g><g><g><path fill="#222" d="M.17 69.912h69.65V.08H.17z"/></g><g><g><path fill="#fff" d="M35.005 4.03C17.946 4.03 4.11 17.903 4.11 35.013c0 17.092 13.836 30.966 30.893 30.966 17.056 0 30.893-13.874 30.893-30.966C65.897 17.903 52.06 4.03 35.004 4.03"/></g><g><path fill="#222" d="M35.524 33.416v2.109l-8.776 8.819-1.053-1.066 1.618-1.624-4.387-4.409-1.584 1.596v-2.12l6.291-6.312 5.449 5.462zM7.62 29.255h9.715v2.102h-1.62v6.795l5.627-3.14v5.756H7.62v-2.111h1.629v-7.3H7.62zm50.684 0v2.102h-1.629v6.795l5.637-3.14v5.756h-13.73v-2.111h1.627v-7.3h-1.627v-2.102zM26.828 22.71h-.001zm3.459 3.458c0 1.916-1.55 3.47-3.46 3.47a3.465 3.465 0 0 1-3.459-3.47 3.456 3.456 0 0 1 3.46-3.458c1.91 0 3.459 1.544 3.459 3.458z"/></g><g><path fill="#222" d="M43.162 29.25H33.9v2.102h1.62v7.3H33.9v2.11h9.262c6.848 0 6.918-11.512 0-11.512z"/></g><g><path fill="#fff" d="M41.86 37.175h-.46V32.83h.39c2.026 0 2.026 4.355.07 4.345z"/></g></g></g></g></g></g></g></g></svg>