<svg xmlns="http://www.w3.org/2000/svg" width="192" height="26" viewBox="0 0 192 26"><g><g><g><path fill="#222" d="M159.119 8.651c-.208.027-.396.208-.49.396-.15.298.13 1.008-.202.98-.762-.065-1.312-.785-1.975-1.165-.081-.047-.17-.078-.258-.113-.031-.013-.064-.04-.096-.03-2.662.777-5.558 1.016-7.97 2.384-1.296.735-2.733 5.106-2.618 3.621.171-2.204.687-4.353 1.298-6.485 8.215-.241 16.072-.466 23.584-.676l-.188 1.105-.013-.02a.49.49 0 0 0-.393-.17l-3.202 1.124.057-.36a.501.501 0 0 0-.105-.41.507.507 0 0 0-.384-.18h-2.598a.499.499 0 0 0-.496.404l-.073.392-2.185 11.91-.784.082c.579-2.978 1.08-5.972 1.629-8.956.203-1.104.423-2.207.557-3.322.014-.113-.357-.502-.499-.511-.864-.052-1.738-.11-2.596 0zm22.198 10.738l1.186-7.211h-1.275a.5.5 0 0 1-.494-.592l.368-1.929c-.831.975-4.924 5.95-5.314 6.409l2.261 3.622c-1.505.138-2.983.276-4.43.412l3.178 4.821c.093.14.25.224.417.224l3.344.005a.563.563 0 0 0 .173-.032c.071.032.15.054.228.051l2.823-.019a.497.497 0 0 0 .489-.41l.99-5.707c-1.331.119-2.647.238-3.944.356zm-34.509-11.15l-4.065.119a6.814 6.814 0 0 0-3.041.805c1.75-2.972 3.343-6.286 5.415-8.591a.41.41 0 0 1 .281-.127 40.405 40.405 0 0 1 3.16 0c.245.01.42.216.362.463-.583 2.465-1.41 4.888-2.112 7.33zm-12.466 7.017c-1.91 3.312-3.585 7.118-5.844 9.722a.41.41 0 0 1-.281.13c-.948.047-1.9.06-2.848.025a.468.468 0 0 1-.298-.14c-.059-.058-.061-.154-.08-.234-.006-.026 0-.054.006-.08.633-3 3.289-7.69 4.654-11.3-.333 1.65.017 2.727 1.716 2.675a6.626 6.626 0 0 0 2.975-.798zm-4.011-4.084c.385-1.825.018-3.023-1.849-2.966-7.302.221-9.35 11.227-14.08 16.794a.425.425 0 0 1-.301.133c-.851.032-1.704-.02-2.556-.025-.54-.003-1.083.06-1.619 0a.47.47 0 0 1-.341-.216c-.057-.098.012-.227.02-.34a.04.04 0 0 1 .004-.014c.003-.007.008-.013.012-.02l-.004.007c.126-.209.281-.402.377-.626.227-.533.55-1.058.588-1.637.112-1.74.959-3.881-.147-5.23-1.788-2.18-4.463-3.368-6.962-4.77l-.06.193.33.316c.037-.054.076-.107.114-.16.078-.107.07.117.063.327 2.005 1.893 4.11 3.722 5.187 6.202.716 1.649-.416 3.708-1.41 5.205-.541.815-1.821.714-2.741 1.045-.147.053-.525.245-.455.106.823-1.635 3.043-2.92 2.785-4.733-.388-2.722-2.068-5.035-3.523-7.43-.068.06-.136.12-.203.182l.056.19.17-.077c.118-.053.006.129-.103.305.786 2.652 1.696 5.3 1.394 7.996-.281 2.51-2.812 4.086-4.925 3.756-.81-.127-2.878.109-2.397-.556 1.066-1.475 4.071-1.006 4.748-2.695.956-2.386.762-5.027.684-7.65-.04.062-.32.188-.462.275-.614 2.581-1.173 5.192-2.72 7.283-1.06 1.433-3.388 1.508-5.166 1.379-.999-.072-3.139-1.356-2.311-1.92 1.418-.966 3.815 1.068 5.147-.013 2.07-1.68 3.246-4.166 4.557-6.543-.071.02-.268.008-.424.005-1.915 2-3.765 4.105-6.248 5.218-4.517 2.026-5.245-1.957-6.129-4.275-.03-.081-.134-.294-.057-.254 1.518.793 2.767 2.823 4.458 2.552 2.746-.44 5.09-2.122 7.52-3.569a22.279 22.279 0 0 0-.16-.172c-.14.04-.28.08-.421.122l.107.233c.061.136-.186-.034-.38-.153-2.598.768-5.192 1.625-7.834 1.339-1.79-.194-2.855-5.18-3.912-3.723-2.436 3.36-1.381 8.188-2.266 12.243-.046.209-.282.38-.494.408-.85.111-1.718.046-2.574-.007a.626.626 0 0 1-.388-.176c-.103-.101-.131-.274-.107-.412.033-.19.297-.594.107-.567-2.104.3-4.192 2.098-6.212 1.436-2.212-.724-3.467-3.158-4.822-5.05-.37-.518-.101-1.27-.16-1.904-.002-.023-.018-.089-.022-.066-.378 2.108-.609 4.246-1.102 6.33-.05.21-.281.39-.495.416-.965.116-1.946.047-2.917-.007-.313-.017-.552-.259-.495-.588.895-5.196 1.777-10.396 2.86-15.556.044-.21.28-.386.493-.413.915-.117 1.847-.055 2.768-.004.14.008.293.07.384.177a.532.532 0 0 1 .112.406c-.312 2.122-.745 4.225-1.103 6.34-.006.038.027-.074.048-.106.966-1.458 1.427-3.443 2.914-4.365 2.357-1.461 5.308-1.607 7.97-2.384.031-.01.063.018.093.03.089.036.18.066.264.113.632.352 1.161 1.02 1.882 1.081.313.027.127-.628.29-.896.565-.932 2.75-.416 3.086-.396a.613.613 0 0 1 .388.179c.082.083.056.23.112.332.89 1.62 1.013 4.136 2.726 4.83 2.552 1.034 5.401.737 8.209.675a20.84 20.84 0 0 0-.059-.272 67.04 67.04 0 0 0-.193-.048l-.018.189c-.013.13-.114-.061-.212-.245-2.69-.652-5.434-1.197-7.637-2.787-1.39-1.003-1.543-3.258-1.355-4.962.13-1.169 1.425-3.63 2.207-2.752 1.16 1.303-1.095 3.875 0 5.233 1.655 2.051 4.11 3.216 6.468 4.5a12.61 12.61 0 0 1-.058-.507c-1.967-1.861-4.01-3.674-5.087-6.104-.707-1.596.368-3.617 1.35-5.06.575-.845 2.764-2.138 2.855-1.12.152 1.702-2.83 2.756-2.558 4.443.444 2.757 2.145 5.104 3.6 7.541l.166-.15-.058-.2-.146.067c-.112.05-.017-.11.085-.275-.792-2.703-1.738-5.4-1.442-8.151.186-1.733 2.1-2.999 3.697-3.697 1.096-.48 3.947-.602 3.551.527-.593 1.692-4.01 1-4.67 2.666-1.029 2.597-.715 5.487-.667 8.33a20.9 20.9 0 0 0 .224-.049l.113-.463-.142-.014c-.116-.012.026-.094.189-.18.635-2.664 1.174-5.38 2.777-7.533 1.075-1.445 3.43-1.544 5.223-1.383 1.1.1 3.471 1.434 2.578 2.085-1.458 1.061-3.995-1.14-5.41-.023-2.392 1.889-3.808 4.643-4.678 6.76l.251.08.138-.144a15.8 15.8 0 0 1-.148-.106c-.104-.075.102-.068.307-.061 1.909-2.013 3.75-4.134 6.25-5.206 1.671-.716 3.757.412 5.264 1.429.852.575.763 1.91 1.117 2.875.054.148.248.53.107.46-1.645-.823-2.94-3.047-4.762-2.79-2.559.36-4.76 1.86-7.005 3.245.122.064.316.199.419.246.006.003.013.008.015.015 2.568-.772 5.133-1.619 7.741-1.306 1.818.218 3.074 2.248 3.87 3.897.445.923.386 3.49-.529 3.028-1.59-.8-.998-3.981-2.654-4.632-2.516-.988-5.302-.733-8.055-.672.048.06.118.197.181.314 2.765.637 5.615 1.12 7.783 2.847 1.653 1.316-.019 7.357 1.687 6.11 7.159-5.233 11.593-13.422 17.438-20.09a.408.408 0 0 1 .285-.127 49.795 49.795 0 0 1 3.49 0c.277.01.322.164.374.373.006.025-.002.052-.007.077-.571 2.727-2.956 6.972-4.22 10.277zm-28.08 4.037l.122-.22-.24-.076-.119.123c.073.05.145.102.217.154.01.007.016.013.02.019zm.936-.45c-.005-.172-.01-.344-.013-.517l-.266.06-.101.416c.114.009.229.02.343.031.018.002.03.006.037.01zm.071-3.367l-.245.004.045.205.176.042a15.066 15.066 0 0 1 .024-.251zm40.125 12.097c-.117.455-.24.907-.373 1.357a.443.443 0 0 1-.366.287c-1.12.086-2.246.044-3.368 0a.47.47 0 0 1-.296-.144c-.058-.058-.065-.151-.082-.231-.076-.355 1.528-.783 4.485-1.269zm1.085-4.544c.068-.277.07-.578.203-.83.066-.125 0 .283.01.424.047.635-.208 1.386.163 1.904.583.814 1.147 1.728 1.777 2.564-1.21.166-2.293.327-3.238.482.39-1.507.712-3.032 1.085-4.544zm2.153 4.062c3.493-.48 8.047-1.006 13.407-1.567a132.02 132.02 0 0 1-.697 3.371c-.046.209-.283.38-.495.408-.851.111-1.719.046-2.576-.007a.621.621 0 0 1-.386-.176c-.108-.107-.13-.273-.105-.412.033-.19.297-.594.107-.567-2.104.3-4.193 2.098-6.213 1.436-1.26-.413-2.208-1.38-3.042-2.486zm-6.92-13.844c-1.525 2.59-3.171 4.919-5.36 6.093 1.508-2.617 3.161-4.926 5.36-6.093zm-10.05 4.216c.132-.657.373-1.404.68-2.207-.14.663-.378 1.408-.68 2.207zM102.68 11.4c-.107.001-.213.002-.319.001l.035.037c.115.03.23.058.346.087a17.91 17.91 0 0 1-.062-.125zm-.885-.15l-.03.018.097.027-.067-.045zm-1.032.357l.24-.244a18.043 18.043 0 0 1-.14-.01l-.1.254zm.51-.052c.193-.051.386-.104.579-.159a23.465 23.465 0 0 1-.291-.007 31.34 31.34 0 0 1-.288.166zm1.153-.687l-.358.218.181.196.326-.096-.149-.318zm-2.303 1.368l.14-.133V12.1l-.14.07v.066zm-.006 1.628l-.026-.104-.005.087.03.017zm.987.793a23.673 23.673 0 0 0-.051-.054 41.578 41.578 0 0 0-.473-.123l.09.18.434-.003zm-.497-.512c-.14-.14-.28-.28-.422-.418l.137.253.285.165zm1.016.616l-.03-.008.021.014.009-.006zm1.12-.421l-.06.014c-.111.11-.221.222-.331.333l.184.011c.069-.12.137-.24.207-.358zm-.686.171a38.3 38.3 0 0 0-.548.149l.279.005.27-.154zm1.11-.63l-.084.08.084-.041v-.038zm.187-1.235a24.4 24.4 0 0 0-.02.066c.042.156.085.31.129.466l.109-.162a34.18 34.18 0 0 1-.218-.37zm-.19.664a37.39 37.39 0 0 0-.153.58l.153-.249v-.33zm.01-1.217l.021.088a17.5 17.5 0 0 1 .004-.073l-.026-.015zm-.319-.184l.19.188-.063-.114-.127-.074zM.37 24.583a.382.382 0 0 1 .06-.09L21.234.572a.382.382 0 0 1 .285-.128h3.358c.11 0 .216.051.29.138a.388.388 0 0 1 .084.235.417.417 0 0 1-.01.077s-2.605 12.838-3.09 15.16L35.903.572a.368.368 0 0 1 .278-.127h3.162a.368.368 0 0 1 .363.463l-3.318 13.44c.028-.05.051-.099.077-.145 1.579-3.064 4.58-5.218 7.827-5.614.01-.003.023-.003.036-.003 2.937-.148 5.204.96 6.563 3.2l.022.036c.488.978.852 2.293.917 3.646.555-1.613 1.54-3.106 2.91-4.365 2.32-2.154 5.15-3.001 7.971-2.384a.67.67 0 0 1 .093.03l.262.113c.626.269 1.307.567 1.883 1.081.305-1.431 1.2-5.678 1.2-5.678a.503.503 0 0 1 .49-.396h2.595c.15 0 .29.067.386.178a.511.511 0 0 1 .11.412l-3.785 20.352a.5.5 0 0 1-.493.408l-2.575-.007a.507.507 0 0 1-.389-.176.501.501 0 0 1-.106-.412s.065-.341.106-.567c-2.098 1.292-4.221 1.795-6.211 1.435-2.277-.451-4.394-2.67-4.822-5.049a10.091 10.091 0 0 1-.162-1.904.508.508 0 0 1-.336.13l-11.95.005a.641.641 0 0 0-.02.145c0 .182.064.42.146.69l.051.175c.567 1.39 1.928 2.262 3.472 2.225 1.535-.035 2.957-.768 4.221-2.177a.492.492 0 0 1 .371-.167h2.664c.172 0 .334.088.423.234a.502.502 0 0 1 .033.482c-1.513 3.172-4.904 5.302-8.463 5.302-2.477-.096-4.555-1.298-5.712-3.308-.576-1.071-.849-2.4-.833-3.762l-1.563 6.333a.378.378 0 0 1-.367.287h-3.37a.367.367 0 0 1-.292-.144.36.36 0 0 1-.084-.23c0-.032.005-.059.01-.088 1.317-5.467 3.162-13.237 3.832-16.312l-14.243 16.62a.365.365 0 0 1-.281.129l-2.847.025a.375.375 0 0 1-.378-.375c0-.025 0-.052.007-.079 1.205-5.531 2.89-13.41 3.483-16.473L5.187 25a.388.388 0 0 1-.3.133 57.515 57.515 0 0 0-2.556-.025H.71a.368.368 0 0 1-.34-.215zm157.097-7.254c-.583 2.032-2.51 3.967-4.395 4.423-1.442.19-2.498.055-3.23-.42-.777-.532-1.167-1.455-1.468-2.287a5.414 5.414 0 0 1-.08-.891c0-1.851.994-3.635 2.822-5.002 1.047-.732 2.476-1.01 3.726-.724.705.163 1.673.581 2.275 1.67.335.591.516 1.34.516 2.07 0 .404-.056.8-.166 1.161zM47.874 14.921c-.06-.553-.352-1.07-.964-1.682-.675-.577-1.6-.848-2.915-.855-1.424.198-3.087 1.132-3.864 2.61zm16.207 2.408c.11-.361.163-.757.163-1.16 0-.731-.178-1.48-.514-2.07-.607-1.09-1.57-1.508-2.278-1.67a4.822 4.822 0 0 0-3.728.723c-1.823 1.367-2.818 3.15-2.818 5.002 0 .293.028.593.08.891.301.832.69 1.755 1.466 2.287.736.475 1.794.61 3.231.42 1.884-.456 3.811-2.391 4.398-4.423zm6.308-13.064a.5.5 0 0 1 .493-.402l2.871.025a.506.506 0 0 1 .38.181.521.521 0 0 1 .109.41l-.549 3.243a.5.5 0 0 1-.493.41h-2.92a.507.507 0 0 1-.388-.178.514.514 0 0 1-.108-.417zm14.399 11.903c0-.73-.18-1.479-.517-2.07-.604-1.089-1.569-1.507-2.275-1.67a4.824 4.824 0 0 0-3.727.724c-1.827 1.367-2.82 3.151-2.82 5.002 0 .293.028.593.08.891.301.832.689 1.755 1.465 2.287.736.475 1.792.61 3.232.42 1.882-.456 3.811-2.391 4.396-4.423.109-.361.166-.757.166-1.161zm93.261 3.52c1.076-.1 2.165-.2 3.268-.3l-.719 4.382zm-17.828 4.894a.508.508 0 0 0 .515.587l1.282-.019h1.205c.24 0 .44-.167.487-.398l.764-3.766c-1.256.126-2.478.25-3.662.373zm5.394-9.222c.629-2.38 2.21-3.089 3.608-3.295.075-.01.357-.006.417-.044l-1.447 8.598c-1.27.123-2.51.246-3.72.367zm1.912 9.211a.5.5 0 0 0 .492.579h2.797c.219 0 .414-.14.476-.35.068-.207.466-2.464.83-4.559-1.339.127-2.649.253-3.929.378l-.666 3.952zm4.925-6.24l1.167 1.769-1.497.141.33-1.91zm13.999-6.147l3.24-.005c.243 0 .45-.175.493-.413l.436-2.534a.389.389 0 0 0 .009-.085.506.506 0 0 0-.116-.318.502.502 0 0 0-.385-.177h-3.193l.268-1.55c239.012-6.411 84.091 4.22-1.941 11.93zm1.208-7.732a.485.485 0 0 0-.11-.405.49.49 0 0 0-.381-.177h-2.807a.5.5 0 0 0-.492.412l-.494 2.923c1.287-.035 2.563-.07 3.828-.103l.456-2.65zm-4.53 4.2c-.254.008-.515.013-.515.013l-.438.003-.465-.008a.499.499 0 0 0-.43.23.495.495 0 0 0-.412-.225L178.3 8.66h-.751a.512.512 0 0 0-.369.16s-2.584 2.954-3.956 4.437l.994-5.8c3.113-.087 6.165-.17 9.157-.252-.11.653-.207 1.22-.246 1.447zm-8.397-4.192a.485.485 0 0 0-.113-.405.487.487 0 0 0-.38-.179l-2.795-.006a.496.496 0 0 0-.496.411l-.556 3.282 3.826-.107.514-2.996z"/></g></g></g></svg>