<svg xmlns="http://www.w3.org/2000/svg" width="192" height="29" viewBox="0 0 192 29"><g><g><path fill="#222" d="M17.75 6.697V.48h21.86l5.969 16.631L51.624.48h6.667l-9.689 26.812h-5.969L35.114 6.697h-5.659v20.595h-6.433V6.697z"/></g><g><path fill="#222" d="M6.974 12.76c7.055.388 7.21-7.383 0-6.916zm0 4.586v9.947H.23V.481h10.776c8.526-.156 10.619 13.445 2.945 16.088l6.202 10.724h-7.364zM134.566.48h7.597l7.209 26.813h-5.35l-1.24-4.74h-8.99l-1.242 4.74h-5.193l7.21-26.812zm3.721 5.286l-3.178 11.89h6.356z"/></g><g><path fill="#222" d="M159.288 12.22h11.86v9.325c-1.86 2.41-3.1 4.275-5.582 5.441-1.627.776-4.263 1.398-6.666 1.398-2.945 0-5.349-.544-7.21-1.631-1.859-1.167-3.021-2.643-4.03-4.82-1.007-2.253-1.24-4.818-1.24-7.694 0-3.03.388-5.75 1.55-7.926 1.085-2.254 2.714-3.886 4.884-5.053 1.705-.932 3.488-1.32 6.356-1.32 2.79 0 4.806.233 6.202.777 1.395.543 2.48 1.399 3.41 2.565.853 1.166 1.55 2.642 2.016 4.43l-6.512 1.476c-.31-1.088-.775-1.865-1.55-2.41-.698-.542-1.628-.931-2.713-1.087-2.247-.311-4.03.932-5.038 2.176-1.008 1.32-1.474 3.341-1.474 6.218 0 2.953.466 5.517 1.474 6.838 1.008 1.245 2.48 1.944 4.263 1.944.853 0 1.705-.156 2.48-.468.775-.231 1.629-.698 2.636-1.398v-3.03h-5.116zm21.395-5.674c6.665 0 6.51 14.766 0 14.766h-1.008V6.546zm-3.489 14.766V6.546h2.481V.484h-8.527v26.89h8.527v-6.062z"/></g><g clip-path="url(#clip-1:174)"><path fill="#fff" d="M52.4 27.293h78.679V.48H52.4z"/></g><g clip-path="url(#clip-1:174)"><path fill="#222" d="M51.62 27.293V.48h80.231v26.813zm1.553-1.398v-.002h-.001zm77.205-.002V1.958H53.173v23.935z"/></g><g clip-path="url(#clip-1:174)"><path fill="#222" d="M70.848 20.768H57.36V6.933h13.101v2.72h-9.457v2.798h8.758v1.943h-8.758v4.042h9.844zm36.587 0h-4.109l-.076-3.731c0-1.943-2.403-1.866-3.954-1.866h-2.558v5.597h-4.263V6.932h9.612c6.279 0 7.752 5.13 3.1 6.996 1.163.387 2.17 1.554 2.17 3.03l.078 3.809zm-10.852-7.696h4.031c1.086 0 1.938-.156 2.404-.389.464-.31.774-.777.774-1.399 0-1.165-1.008-1.787-2.945-1.787h-4.264zM118.52 6.7c1.24 0 2.403.156 3.411.544 1.085.312 2.015.777 2.79 1.4.776.62 1.319 1.398 1.783 2.253.388.932.62 1.865.62 2.954 0 1.01-.154 2.02-.62 2.875-.387.856-1.007 1.632-1.783 2.254-.775.621-1.705 1.165-2.712 1.477-1.086.31-2.248.543-3.489.543-1.24 0-2.48-.232-3.488-.543a7.028 7.028 0 0 1-2.712-1.477c-.776-.622-1.397-1.322-1.783-2.254-.466-.855-.699-1.788-.699-2.875 0-1.089.233-2.1.699-2.954.386-.855 1.007-1.632 1.783-2.253.775-.623 1.705-1.088 2.712-1.4 1.086-.388 2.248-.544 3.488-.544zm0 11.813c.698 0 1.396-.077 2.093-.31a5.607 5.607 0 0 0 1.628-.933c.465-.388.775-.855 1.085-1.476a5.096 5.096 0 0 0 .388-1.943c0-.778-.155-1.4-.388-2.022-.31-.544-.62-1.01-1.085-1.398a5.54 5.54 0 0 0-1.628-.933c-.697-.233-1.318-.311-2.093-.311-.698 0-1.395.078-2.092.31a5.587 5.587 0 0 0-1.628.934c-.465.388-.853.854-1.086 1.476a4.822 4.822 0 0 0-.387 1.944c0 .699.155 1.399.387 1.943.233.621.62 1.088 1.086 1.476.465.388 1.007.7 1.628.933.62.233 1.317.31 2.092.31zM78.29 6.933v9.793c.154 2.72 6.976 2.642 6.82 0V6.932h3.799l-.078 10.026c.078 5.13-13.953 5.13-14.03 0V6.933zm47.672-.077a1.921 1.921 0 0 1-1.938-1.944c0-1.087.852-1.942 1.938-1.942 1.086 0 1.938.855 1.938 1.942a1.921 1.921 0 0 1-1.938 1.944zm0-.311c.93 0 1.628-.777 1.628-1.633 0-.932-.698-1.71-1.628-1.71-.93 0-1.628.778-1.628 1.71 0 .856.698 1.633 1.628 1.633zm-.31-1.866h.698c0-.077.077-.077.077-.077.078-.077.078-.155.078-.155 0-.078 0-.156-.078-.234 0 0-.077-.077-.155-.077h-.62zm-.465 1.245v-2.1h1.395l.233.234c.077.078.077.233.077.31 0 .157 0 .311-.077.39-.156.076-.233.154-.465.232.077 0 .155.078.232.156.077.078.155.156.233.31l.31.468h-.543l-.31-.468c-.077-.154-.155-.31-.232-.31 0-.078-.078-.078-.078-.078-.078-.078-.155-.078-.233-.078h-.077v.934z"/></g></g></svg>