<svg xmlns="http://www.w3.org/2000/svg" width="132" height="59" viewBox="0 0 132 59"><g><g><g><g><g><g><g><path fill="#222" d="M27.497 23.241a.683.683 0 0 1-.695-.701v-1.459c-.008-.355.105-.516.323-.788l9.433-11.055h-9.244a.685.685 0 0 1-.694-.7V7.505c.001-.4.3-.699.694-.701h11.972a.684.684 0 0 1 .695.701v1.488c.006.268-.085.496-.299.737l-9.457 11.076h9.122a.685.685 0 0 1 .695.701v1.033c0 .399-.3.701-.695.701zm35.212.305c-2.097-.005-3.254-1.202-3.257-3.375V1.835c-.012-.375.281-.577.563-.607L61.67.802l.105-.001c.358.01.544.327.544.638V20.11c.011.892.511.982 1.116 1h.003c.21 0 .424.01.424.01l.022-.001c.169 0 .37.131.423.418l.005.027c.233 1.1.233 1.1.239 1.193a.427.427 0 0 1-.118.324c-.246.277-.873.447-1.721.464h-.003zm31.975-.305a.686.686 0 0 1-.696-.701V11.301c-.025-1.9-.588-2.43-2.62-2.46-2.3 0-4.624.582-5.39.793V22.54c-.002.406-.28.701-.665.701h-1.508a.684.684 0 0 1-.694-.701V9.935c-.022-1.167.087-1.974 1.733-2.51 1.577-.55 4.593-1.015 6.587-1.016 3.796.005 5.42 1.387 5.424 4.618V22.54c0 .399-.3.701-.693.701zm16.318-13.938a16.26 16.26 0 0 0-3.824-.49c-3.182.029-4.518.9-4.55 6.225.036 5.847 1.762 6.163 4.58 6.193a14.91 14.91 0 0 0 3.792-.516zm.601 13.764c-.94.24-2.227.569-4.485.569h-.003c-6.217-.009-7.439-3.172-7.445-8.629.009-6.26 1.977-8.59 7.262-8.598 1.866 0 3.152.243 4.074.468L111 1.836c-.007-.223.092-.512.61-.612L113.262.8h.09c.381.01.514.35.515.638v18.947c.025 1.194-.115 2.22-2.089 2.637zm12.23-1.866c4.076-.017 4.279-2.126 4.308-6.166-.028-4.056-.232-6.173-4.308-6.193-4.074.019-4.277 2.137-4.306 6.196.029 4.038.233 6.146 4.306 6.164zm0-14.793c6.719.01 7.288 4.269 7.296 8.63-.01 4.168-.583 8.589-7.294 8.598h-.002c-6.717-.008-7.287-4.444-7.293-8.598.006-4.172.576-8.619 7.293-8.629zm-46.561 8.717h.001zm-5.238.341l-.1.023c-1.46.329-2.615.587-2.628 2.768.003 2.742 2.085 2.988 4.217 3.006l.002.123v-.123c1.336 0 2.595-.192 3.747-.567v-5.571c-.676.008-3.937.06-5.238.341zm8.12 4.37c.03 2.17-.524 2.86-2.688 3.367-.949.198-2.401.431-3.974.433-2.32-.006-7.142-.015-7.144-5.258-.016-4.129 2.446-4.847 5.419-5.307 1.949-.315 3.93-.362 4.937-.362.272 0 .45.002.553.005V11.24c-.01-.984-.014-1.58-.929-1.928-.56-.238-1.401-.349-2.648-.349-2.057 0-3.9.466-5.118.774l-.466.11a.918.918 0 0 1-.174.03.559.559 0 0 1-.537-.415l-.007-.026-.276-1.404v-.071c.004-.332.24-.526.462-.596.984-.37 3.582-.955 6.38-.956 2.046.001 3.522.269 4.516.819 1.7.906 1.697 2.561 1.694 3.89zm-26.996-4.711c-.673.008-3.936.06-5.235.341l-.102.023c-1.461.328-2.615.588-2.629 2.768.003 2.742 2.085 2.988 4.217 3.006l.001.123v-.123c1.336 0 2.596-.192 3.748-.567zm2.881-4.006v8.717c.029 2.169-.523 2.86-2.687 3.367-.948.198-2.4.431-3.974.433-2.318-.006-7.141-.015-7.144-5.258-.014-4.129 2.446-4.847 5.42-5.307 1.948-.315 3.93-.362 4.938-.362.271 0 .446.002.553.005V11.24c-.012-.984-.016-1.579-.929-1.927-.563-.239-1.402-.35-2.65-.35-2.058 0-3.898.465-5.118.775l-.465.11a.945.945 0 0 1-.174.028h-.001a.558.558 0 0 1-.537-.414l-.007-.026-.275-1.404-.001-.071c.004-.332.241-.526.464-.596.983-.37 3.581-.955 6.379-.957 2.045.002 3.521.27 4.514.82 1.702.906 1.697 2.561 1.694 3.891z"/></g><g><g><path fill="#222" d="M115.499 41.968c-.03-1.13-.093-2.226-.372-3.324-.499-1.945-1.65-2.539-3.982-2.539-2.393 0-3.513.628-4.011 2.54-.28 1.066-.311 2.224-.341 3.354l8.706-.03zm2.954 1.755c0 .22-.216.47-.435.47h-11.195c0 1.662.341 2.601 1.056 3.385.873 1.005 2.302 1.35 4.355 1.35 1.928 0 3.172-.41 4.51-.786.063-.03.125-.03.187-.03.156 0 .248.094.34.313l.343 1.285c.032.032.032.095.032.126 0 .188-.125.315-.342.377-1.215.5-3.266.94-5.412.94-6.095 0-8.055-2.759-8.055-8.621 0-5.424 1.214-8.653 7.34-8.653 3.234 0 5.13.973 6.187 2.665.873 1.443 1.089 3.386 1.089 5.643zm-20.559 4.67V36.605s-1.833-.501-3.918-.501c-3.233 0-4.633 1.035-4.633 6.427 0 5.799 1.648 6.427 4.665 6.427 2.144 0 3.886-.565 3.886-.565zm2.863 3.425h.002v.53c0 3.29-1.003 6.513-7.193 6.513-3.991 0-6.034-1.256-6.824-3.617l.006-.007c-.084-.218-.021-.413.22-.51l1.494-.599c.2-.082.373-.032.473.112.696 1.637 2.151 2.339 4.631 2.339 3.351 0 4.232-1.491 4.318-3.401v-2.419l.11-.15c-.996.253-2.088.544-4.327.544-6.003 0-7.308-2.947-7.308-8.59 0-6.207 1.802-8.684 7.4-8.684 2.207 0 3.856.375 4.976.658 1.929.472 2.022 1.38 2.022 2.54zm-17.48-13.361v11.819c0 .28-.157.468-.466.468h-1.927c-.311 0-.499-.188-.499-.468V38.8c0-2.005-.744-2.695-2.765-2.695-2.645 0-5.351.784-5.351.784v13.388c0 .28-.155.468-.466.468h-1.929c-.31 0-.498-.188-.498-.468V37.14c0-1.224.188-1.756 1.805-2.288 1.616-.533 4.6-.973 6.593-.973 3.732 0 5.504 1.13 5.504 4.578zm-17.473-4.578c.247 0 .341.189.341.44v10.408c0 3.292-.745 6.428-6.935 6.428-5.381 0-6.966-2.195-6.966-6.396V34.79c0-.283.186-.408.436-.47l2.022-.44h.094c.249 0 .34.22.34.44v10.688c0 2.725.964 3.95 4.074 3.95 3.702 0 4.075-1.82 4.075-4.013l-.03-10.126c0-.314.155-.44.433-.47l1.993-.472h.123zm-19.37 8.652c0-3.95-.186-6.427-4.415-6.427-4.199 0-4.385 2.477-4.385 6.427 0 3.919.186 6.396 4.385 6.396 4.229 0 4.415-2.477 4.415-6.396zm2.987 0c0 4.732-.778 8.622-7.402 8.622-6.593 0-7.401-3.89-7.401-8.622 0-4.766.808-8.653 7.4-8.653 6.625 0 7.403 3.887 7.403 8.653zm-16.31 6.397l.28 1.285v.094c0 .25-.186.345-.248.345-.248.125-1.119.407-2.365.407-2.083 0-3.388-1.097-3.388-3.449V29.188c0-.28.155-.406.435-.44l2.021-.468h.094c.249 0 .341.187.341.437v18.766c0 1.13.747 1.318 1.369 1.318.435 0 .902-.093 1.09-.126.06 0 .092-.031.122-.031.124 0 .219.064.249.284z"/></g></g><g><path fill="#222" d="M18.324 12.047l-.003.001-.192-.213C15.335 8.746 9.539 5.01 2.979 5.01c-2.055 0-3.115 5.637-3.023 10.864l-.006-.001c.11 4.618 1.14 9.044 3.185 9.044 7.84 0 16.77-7.324 16.77-9.949 0-.657-.677-1.924-1.58-2.921"/></g></g></g></g></g></g></g></svg>